<svg width="183" height="68" viewBox="0 0 183 68" fill="none" xmlns="http://www.w3.org/2000/svg">
<g filter="url(#filter0_d_64_24)">
<rect x="4" y="4" width="175" height="60" rx="3" fill="white"/>
</g>
<path d="M53.8651 34V15.0909H60.956C62.4086 15.0909 63.6274 15.3433 64.6122 15.848C65.6032 16.3527 66.3511 17.0606 66.8558 17.9716C67.3667 18.8764 67.6222 19.9321 67.6222 21.1385C67.6222 22.3511 67.3636 23.4036 66.8466 24.2962C66.3357 25.1825 65.5817 25.8688 64.5845 26.3551C63.5874 26.8352 62.3625 27.0753 60.9098 27.0753H55.8594V24.2315H60.4482C61.2976 24.2315 61.9931 24.1146 62.5348 23.8807C63.0765 23.6406 63.4766 23.2928 63.7351 22.8374C63.9998 22.3757 64.1321 21.8094 64.1321 21.1385C64.1321 20.4676 63.9998 19.8951 63.7351 19.4212C63.4704 18.9411 63.0672 18.5779 62.5256 18.3317C61.9839 18.0793 61.2853 17.9531 60.4297 17.9531H57.2905V34H53.8651ZM63.6335 25.4318L68.3146 34H64.4922L59.8942 25.4318H63.6335ZM77.1829 34H70.7752V15.0909H77.3121C79.1895 15.0909 80.8022 15.4695 82.1502 16.2266C83.5044 16.9775 84.5446 18.0578 85.271 19.4673C85.9973 20.8769 86.3604 22.5634 86.3604 24.527C86.3604 26.4967 85.9942 28.1894 85.2617 29.6051C84.5354 31.0208 83.4859 32.1072 82.1133 32.8643C80.7468 33.6214 79.1033 34 77.1829 34ZM74.2006 31.0362H77.0167C78.3339 31.0362 79.4326 30.7962 80.3129 30.3161C81.1931 29.8298 81.8548 29.1065 82.2979 28.1463C82.7411 27.1799 82.9627 25.9735 82.9627 24.527C82.9627 23.0805 82.7411 21.8802 82.2979 20.9261C81.8548 19.9659 81.1992 19.2488 80.3313 18.7749C79.4696 18.2947 78.3986 18.0547 77.1183 18.0547H74.2006V31.0362ZM105.8 21.4709H102.347C102.249 20.9046 102.067 20.4029 101.803 19.9659C101.538 19.5227 101.209 19.1473 100.815 18.8395C100.421 18.5317 99.9714 18.3009 99.4666 18.147C98.968 17.987 98.4295 17.907 97.8509 17.907C96.8229 17.907 95.9119 18.1655 95.1179 18.6825C94.3239 19.1934 93.7022 19.9444 93.2528 20.9354C92.8035 21.9202 92.5788 23.1236 92.5788 24.5455C92.5788 25.992 92.8035 27.2107 93.2528 28.2017C93.7083 29.1866 94.33 29.9313 95.1179 30.4361C95.9119 30.9347 96.8198 31.1839 97.8416 31.1839C98.4079 31.1839 98.9373 31.1101 99.4297 30.9624C99.9283 30.8085 100.375 30.5838 100.768 30.2884C101.169 29.9929 101.504 29.6297 101.775 29.1989C102.052 28.768 102.243 28.2756 102.347 27.7216L105.8 27.7401C105.671 28.6387 105.391 29.482 104.96 30.2699C104.536 31.0578 103.978 31.7533 103.289 32.3565C102.6 32.9536 101.793 33.4214 100.87 33.7599C99.9467 34.0923 98.9219 34.2585 97.7955 34.2585C96.1335 34.2585 94.6501 33.8738 93.3452 33.1044C92.0402 32.335 91.0123 31.224 90.2614 29.7713C89.5104 28.3187 89.1349 26.5767 89.1349 24.5455C89.1349 22.508 89.5135 20.7661 90.2706 19.3196C91.0277 17.867 92.0587 16.7559 93.3636 15.9865C94.6686 15.2171 96.1458 14.8324 97.7955 14.8324C98.848 14.8324 99.8267 14.9801 100.732 15.2756C101.636 15.571 102.443 16.005 103.151 16.5774C103.858 17.1437 104.44 17.8393 104.896 18.6641C105.357 19.4827 105.659 20.4183 105.8 21.4709ZM108.937 34V15.0909H116.028C117.481 15.0909 118.7 15.3433 119.684 15.848C120.675 16.3527 121.423 17.0606 121.928 17.9716C122.439 18.8764 122.694 19.9321 122.694 21.1385C122.694 22.3511 122.436 23.4036 121.919 24.2962C121.408 25.1825 120.654 25.8688 119.657 26.3551C118.66 26.8352 117.435 27.0753 115.982 27.0753H110.932V24.2315H115.52C116.37 24.2315 117.065 24.1146 117.607 23.8807C118.149 23.6406 118.549 23.2928 118.807 22.8374C119.072 22.3757 119.204 21.8094 119.204 21.1385C119.204 20.4676 119.072 19.8951 118.807 19.4212C118.543 18.9411 118.14 18.5779 117.598 18.3317C117.056 18.0793 116.358 17.9531 115.502 17.9531H112.363V34H108.937ZM118.706 25.4318L123.387 34H119.564L114.966 25.4318H118.706ZM125.847 15.0909H130.039L135.653 28.7926H135.874L141.488 15.0909H145.68V34H142.393V21.0092H142.218L136.992 33.9446H134.536L129.31 20.9815H129.134V34H125.847V15.0909ZM159.686 20.2891C159.6 19.4827 159.237 18.8549 158.597 18.4055C157.963 17.9562 157.138 17.7315 156.122 17.7315C155.408 17.7315 154.796 17.8393 154.285 18.0547C153.774 18.2701 153.383 18.5625 153.112 18.9318C152.842 19.3011 152.703 19.7228 152.697 20.1967C152.697 20.5907 152.786 20.9323 152.965 21.2216C153.149 21.5109 153.399 21.7571 153.713 21.9602C154.026 22.1572 154.374 22.3234 154.756 22.4588C155.137 22.5942 155.522 22.7081 155.91 22.8004L157.683 23.2436C158.397 23.4098 159.083 23.6345 159.742 23.9176C160.406 24.2008 161 24.5578 161.524 24.9886C162.053 25.4195 162.472 25.9396 162.779 26.549C163.087 27.1584 163.241 27.8724 163.241 28.6911C163.241 29.799 162.958 30.7746 162.392 31.6179C161.825 32.455 161.007 33.1106 159.936 33.5845C158.871 34.0523 157.581 34.2862 156.067 34.2862C154.596 34.2862 153.319 34.0585 152.235 33.603C151.158 33.1475 150.315 32.4827 149.705 31.6087C149.102 30.7346 148.776 29.6697 148.727 28.4141H152.097C152.146 29.0727 152.349 29.6205 152.706 30.0575C153.063 30.4946 153.528 30.8208 154.1 31.0362C154.679 31.2517 155.325 31.3594 156.039 31.3594C156.784 31.3594 157.436 31.2486 157.997 31.027C158.563 30.7992 159.006 30.4853 159.326 30.0852C159.646 29.679 159.809 29.205 159.816 28.6634C159.809 28.1709 159.665 27.7647 159.382 27.4446C159.098 27.1184 158.701 26.8475 158.191 26.6321C157.686 26.4105 157.095 26.2135 156.418 26.0412L154.267 25.4872C152.709 25.0871 151.478 24.4808 150.573 23.6683C149.675 22.8497 149.225 21.7633 149.225 20.4091C149.225 19.295 149.527 18.3194 150.13 17.4822C150.74 16.6451 151.567 15.9957 152.614 15.5341C153.66 15.0663 154.845 14.8324 156.169 14.8324C157.51 14.8324 158.686 15.0663 159.695 15.5341C160.711 15.9957 161.508 16.639 162.087 17.4638C162.665 18.2824 162.964 19.2242 162.982 20.2891H159.686Z" fill="#03346E"/>
<path d="M56.8404 45L55.6784 43.005H54.9084V45H54.2714V40.121H55.8464C56.2151 40.121 56.5254 40.184 56.7774 40.31C57.0341 40.436 57.2254 40.6063 57.3514 40.821C57.4774 41.0357 57.5404 41.2807 57.5404 41.556C57.5404 41.892 57.4424 42.1883 57.2464 42.445C57.0551 42.7017 56.7658 42.872 56.3784 42.956L57.6034 45H56.8404ZM54.9084 42.494H55.8464C56.1918 42.494 56.4508 42.41 56.6234 42.242C56.7961 42.0693 56.8824 41.8407 56.8824 41.556C56.8824 41.2667 56.7961 41.0427 56.6234 40.884C56.4554 40.7253 56.1964 40.646 55.8464 40.646H54.9084V42.494ZM62.0302 42.935C62.0302 43.0563 62.0232 43.1847 62.0092 43.32H58.9432C58.9665 43.698 59.0949 43.9943 59.3282 44.209C59.5662 44.419 59.8532 44.524 60.1892 44.524C60.4645 44.524 60.6932 44.461 60.8752 44.335C61.0619 44.2043 61.1925 44.0317 61.2672 43.817H61.9532C61.8505 44.1857 61.6452 44.4867 61.3372 44.72C61.0292 44.9487 60.6465 45.063 60.1892 45.063C59.8252 45.063 59.4985 44.9813 59.2092 44.818C58.9245 44.6547 58.7005 44.4237 58.5372 44.125C58.3739 43.8217 58.2922 43.4717 58.2922 43.075C58.2922 42.6783 58.3715 42.3307 58.5302 42.032C58.6889 41.7333 58.9105 41.5047 59.1952 41.346C59.4845 41.1827 59.8159 41.101 60.1892 41.101C60.5532 41.101 60.8752 41.1803 61.1552 41.339C61.4352 41.4977 61.6499 41.717 61.7992 41.997C61.9532 42.2723 62.0302 42.585 62.0302 42.935ZM61.3722 42.802C61.3722 42.5593 61.3185 42.3517 61.2112 42.179C61.1039 42.0017 60.9569 41.8687 60.7702 41.78C60.5882 41.6867 60.3852 41.64 60.1612 41.64C59.8392 41.64 59.5639 41.7427 59.3352 41.948C59.1112 42.1533 58.9829 42.438 58.9502 42.802H61.3722ZM64.299 44.412L65.489 41.164H66.168L64.663 45H63.921L62.416 41.164H63.102L64.299 44.412ZM70.2949 42.935C70.2949 43.0563 70.2879 43.1847 70.2739 43.32H67.2079C67.2312 43.698 67.3595 43.9943 67.5929 44.209C67.8309 44.419 68.1179 44.524 68.4539 44.524C68.7292 44.524 68.9579 44.461 69.1399 44.335C69.3265 44.2043 69.4572 44.0317 69.5319 43.817H70.2179C70.1152 44.1857 69.9099 44.4867 69.6019 44.72C69.2939 44.9487 68.9112 45.063 68.4539 45.063C68.0899 45.063 67.7632 44.9813 67.4739 44.818C67.1892 44.6547 66.9652 44.4237 66.8019 44.125C66.6385 43.8217 66.5569 43.4717 66.5569 43.075C66.5569 42.6783 66.6362 42.3307 66.7949 42.032C66.9535 41.7333 67.1752 41.5047 67.4599 41.346C67.7492 41.1827 68.0805 41.101 68.4539 41.101C68.8179 41.101 69.1399 41.1803 69.4199 41.339C69.6999 41.4977 69.9145 41.717 70.0639 41.997C70.2179 42.2723 70.2949 42.585 70.2949 42.935ZM69.6369 42.802C69.6369 42.5593 69.5832 42.3517 69.4759 42.179C69.3685 42.0017 69.2215 41.8687 69.0349 41.78C68.8529 41.6867 68.6499 41.64 68.4259 41.64C68.1039 41.64 67.8285 41.7427 67.5999 41.948C67.3759 42.1533 67.2475 42.438 67.2149 42.802H69.6369ZM73.0047 41.094C73.4713 41.094 73.8493 41.2363 74.1387 41.521C74.428 41.801 74.5727 42.207 74.5727 42.739V45H73.9427V42.83C73.9427 42.4473 73.847 42.1557 73.6557 41.955C73.4643 41.7497 73.203 41.647 72.8717 41.647C72.5357 41.647 72.2673 41.752 72.0667 41.962C71.8707 42.172 71.7727 42.4777 71.7727 42.879V45H71.1357V41.164H71.7727V41.71C71.8987 41.514 72.069 41.3623 72.2837 41.255C72.503 41.1477 72.7433 41.094 73.0047 41.094ZM79.0152 41.164V45H78.3782V44.433C78.2569 44.629 78.0866 44.783 77.8672 44.895C77.6526 45.0023 77.4146 45.056 77.1532 45.056C76.8546 45.056 76.5862 44.9953 76.3482 44.874C76.1102 44.748 75.9212 44.5613 75.7812 44.314C75.6459 44.0667 75.5782 43.7657 75.5782 43.411V41.164H76.2082V43.327C76.2082 43.705 76.3039 43.9967 76.4952 44.202C76.6866 44.4027 76.9479 44.503 77.2792 44.503C77.6199 44.503 77.8882 44.398 78.0842 44.188C78.2802 43.978 78.3782 43.6723 78.3782 43.271V41.164H79.0152ZM83.5908 42.935C83.5908 43.0563 83.5838 43.1847 83.5698 43.32H80.5038C80.5271 43.698 80.6554 43.9943 80.8888 44.209C81.1268 44.419 81.4138 44.524 81.7498 44.524C82.0251 44.524 82.2538 44.461 82.4358 44.335C82.6224 44.2043 82.7531 44.0317 82.8278 43.817H83.5138C83.4111 44.1857 83.2058 44.4867 82.8978 44.72C82.5898 44.9487 82.2071 45.063 81.7498 45.063C81.3858 45.063 81.0591 44.9813 80.7698 44.818C80.4851 44.6547 80.2611 44.4237 80.0978 44.125C79.9344 43.8217 79.8528 43.4717 79.8528 43.075C79.8528 42.6783 79.9321 42.3307 80.0908 42.032C80.2494 41.7333 80.4711 41.5047 80.7558 41.346C81.0451 41.1827 81.3764 41.101 81.7498 41.101C82.1138 41.101 82.4358 41.1803 82.7158 41.339C82.9958 41.4977 83.2104 41.717 83.3598 41.997C83.5138 42.2723 83.5908 42.585 83.5908 42.935ZM82.9328 42.802C82.9328 42.5593 82.8791 42.3517 82.7718 42.179C82.6644 42.0017 82.5174 41.8687 82.3308 41.78C82.1488 41.6867 81.9458 41.64 81.7218 41.64C81.3998 41.64 81.1244 41.7427 80.8958 41.948C80.6718 42.1533 80.5434 42.438 80.5108 42.802H82.9328ZM87.8168 40.121C88.3488 40.121 88.8085 40.2213 89.1958 40.422C89.5878 40.618 89.8865 40.9003 90.0918 41.269C90.3018 41.6377 90.4068 42.0717 90.4068 42.571C90.4068 43.0703 90.3018 43.5043 90.0918 43.873C89.8865 44.237 89.5878 44.517 89.1958 44.713C88.8085 44.9043 88.3488 45 87.8168 45H86.2978V40.121H87.8168ZM87.8168 44.475C88.4468 44.475 88.9275 44.3093 89.2588 43.978C89.5901 43.642 89.7558 43.173 89.7558 42.571C89.7558 41.9643 89.5878 41.4907 89.2518 41.15C88.9205 40.8093 88.4421 40.639 87.8168 40.639H86.9348V44.475H87.8168ZM94.747 42.935C94.747 43.0563 94.74 43.1847 94.726 43.32H91.66C91.6833 43.698 91.8117 43.9943 92.045 44.209C92.283 44.419 92.57 44.524 92.906 44.524C93.1813 44.524 93.41 44.461 93.592 44.335C93.7787 44.2043 93.9093 44.0317 93.984 43.817H94.67C94.5673 44.1857 94.362 44.4867 94.054 44.72C93.746 44.9487 93.3633 45.063 92.906 45.063C92.542 45.063 92.2153 44.9813 91.926 44.818C91.6413 44.6547 91.4173 44.4237 91.254 44.125C91.0907 43.8217 91.009 43.4717 91.009 43.075C91.009 42.6783 91.0883 42.3307 91.247 42.032C91.4057 41.7333 91.6273 41.5047 91.912 41.346C92.2013 41.1827 92.5327 41.101 92.906 41.101C93.27 41.101 93.592 41.1803 93.872 41.339C94.152 41.4977 94.3667 41.717 94.516 41.997C94.67 42.2723 94.747 42.585 94.747 42.935ZM94.089 42.802C94.089 42.5593 94.0353 42.3517 93.928 42.179C93.8207 42.0017 93.6737 41.8687 93.487 41.78C93.305 41.6867 93.102 41.64 92.878 41.64C92.556 41.64 92.2807 41.7427 92.052 41.948C91.828 42.1533 91.6997 42.438 91.667 42.802H94.089ZM96.2248 41.871C96.3508 41.6517 96.5375 41.4697 96.7848 41.325C97.0368 41.1757 97.3285 41.101 97.6598 41.101C98.0005 41.101 98.3085 41.1827 98.5838 41.346C98.8638 41.5093 99.0832 41.7403 99.2418 42.039C99.4005 42.333 99.4798 42.676 99.4798 43.068C99.4798 43.4553 99.4005 43.8007 99.2418 44.104C99.0832 44.4073 98.8638 44.643 98.5838 44.811C98.3085 44.979 98.0005 45.063 97.6598 45.063C97.3332 45.063 97.0438 44.9907 96.7918 44.846C96.5445 44.6967 96.3555 44.5123 96.2248 44.293V46.82H95.5878V41.164H96.2248V41.871ZM98.8288 43.068C98.8288 42.7787 98.7705 42.5267 98.6538 42.312C98.5372 42.0973 98.3785 41.934 98.1778 41.822C97.9818 41.71 97.7648 41.654 97.5268 41.654C97.2935 41.654 97.0765 41.7123 96.8758 41.829C96.6798 41.941 96.5212 42.1067 96.3998 42.326C96.2832 42.5407 96.2248 42.7903 96.2248 43.075C96.2248 43.3643 96.2832 43.6187 96.3998 43.838C96.5212 44.0527 96.6798 44.2183 96.8758 44.335C97.0765 44.447 97.2935 44.503 97.5268 44.503C97.7648 44.503 97.9818 44.447 98.1778 44.335C98.3785 44.2183 98.5372 44.0527 98.6538 43.838C98.7705 43.6187 98.8288 43.362 98.8288 43.068ZM100.08 43.068C100.08 42.676 100.16 42.333 100.318 42.039C100.477 41.7403 100.694 41.5093 100.969 41.346C101.249 41.1827 101.56 41.101 101.9 41.101C102.236 41.101 102.528 41.1733 102.775 41.318C103.023 41.4627 103.207 41.6447 103.328 41.864V41.164H103.972V45H103.328V44.286C103.202 44.51 103.013 44.6967 102.761 44.846C102.514 44.9907 102.225 45.063 101.893 45.063C101.553 45.063 101.245 44.979 100.969 44.811C100.694 44.643 100.477 44.4073 100.318 44.104C100.16 43.8007 100.08 43.4553 100.08 43.068ZM103.328 43.075C103.328 42.7857 103.27 42.5337 103.153 42.319C103.037 42.1043 102.878 41.941 102.677 41.829C102.481 41.7123 102.264 41.654 102.026 41.654C101.788 41.654 101.571 41.71 101.375 41.822C101.179 41.934 101.023 42.0973 100.906 42.312C100.79 42.5267 100.731 42.7787 100.731 43.068C100.731 43.362 100.79 43.6187 100.906 43.838C101.023 44.0527 101.179 44.2183 101.375 44.335C101.571 44.447 101.788 44.503 102.026 44.503C102.264 44.503 102.481 44.447 102.677 44.335C102.878 44.2183 103.037 44.0527 103.153 43.838C103.27 43.6187 103.328 43.3643 103.328 43.075ZM105.686 41.787C105.798 41.5677 105.956 41.3973 106.162 41.276C106.372 41.1547 106.626 41.094 106.925 41.094V41.752H106.757C106.043 41.752 105.686 42.1393 105.686 42.914V45H105.049V41.164H105.686V41.787ZM108.437 41.689V43.95C108.437 44.1367 108.477 44.2697 108.556 44.349C108.635 44.4237 108.773 44.461 108.969 44.461H109.438V45H108.864C108.509 45 108.243 44.9183 108.066 44.755C107.889 44.5917 107.8 44.3233 107.8 43.95V41.689H107.303V41.164H107.8V40.198H108.437V41.164H109.438V41.689H108.437ZM114.823 41.094C115.122 41.094 115.388 41.157 115.621 41.283C115.854 41.4043 116.039 41.5887 116.174 41.836C116.309 42.0833 116.377 42.3843 116.377 42.739V45H115.747V42.83C115.747 42.4473 115.651 42.1557 115.46 41.955C115.273 41.7497 115.019 41.647 114.697 41.647C114.366 41.647 114.102 41.7543 113.906 41.969C113.71 42.179 113.612 42.4847 113.612 42.886V45H112.982V42.83C112.982 42.4473 112.886 42.1557 112.695 41.955C112.508 41.7497 112.254 41.647 111.932 41.647C111.601 41.647 111.337 41.7543 111.141 41.969C110.945 42.179 110.847 42.4847 110.847 42.886V45H110.21V41.164H110.847V41.717C110.973 41.5163 111.141 41.3623 111.351 41.255C111.566 41.1477 111.801 41.094 112.058 41.094C112.38 41.094 112.665 41.1663 112.912 41.311C113.159 41.4557 113.344 41.668 113.465 41.948C113.572 41.6773 113.75 41.4673 113.997 41.318C114.244 41.1687 114.52 41.094 114.823 41.094ZM120.922 42.935C120.922 43.0563 120.915 43.1847 120.901 43.32H117.835C117.858 43.698 117.986 43.9943 118.22 44.209C118.458 44.419 118.745 44.524 119.081 44.524C119.356 44.524 119.585 44.461 119.767 44.335C119.953 44.2043 120.084 44.0317 120.159 43.817H120.845C120.742 44.1857 120.537 44.4867 120.229 44.72C119.921 44.9487 119.538 45.063 119.081 45.063C118.717 45.063 118.39 44.9813 118.101 44.818C117.816 44.6547 117.592 44.4237 117.429 44.125C117.265 43.8217 117.184 43.4717 117.184 43.075C117.184 42.6783 117.263 42.3307 117.422 42.032C117.58 41.7333 117.802 41.5047 118.087 41.346C118.376 41.1827 118.707 41.101 119.081 41.101C119.445 41.101 119.767 41.1803 120.047 41.339C120.327 41.4977 120.541 41.717 120.691 41.997C120.845 42.2723 120.922 42.585 120.922 42.935ZM120.264 42.802C120.264 42.5593 120.21 42.3517 120.103 42.179C119.995 42.0017 119.848 41.8687 119.662 41.78C119.48 41.6867 119.277 41.64 119.053 41.64C118.731 41.64 118.455 41.7427 118.227 41.948C118.003 42.1533 117.874 42.438 117.842 42.802H120.264ZM123.632 41.094C124.098 41.094 124.476 41.2363 124.766 41.521C125.055 41.801 125.2 42.207 125.2 42.739V45H124.57V42.83C124.57 42.4473 124.474 42.1557 124.283 41.955C124.091 41.7497 123.83 41.647 123.499 41.647C123.163 41.647 122.894 41.752 122.694 41.962C122.498 42.172 122.4 42.4777 122.4 42.879V45H121.763V41.164H122.4V41.71C122.526 41.514 122.696 41.3623 122.911 41.255C123.13 41.1477 123.37 41.094 123.632 41.094ZM127.017 41.689V43.95C127.017 44.1367 127.057 44.2697 127.136 44.349C127.216 44.4237 127.353 44.461 127.549 44.461H128.018V45H127.444C127.09 45 126.824 44.9183 126.646 44.755C126.469 44.5917 126.38 44.3233 126.38 43.95V41.689H125.883V41.164H126.38V40.198H127.017V41.164H128.018V41.689H127.017ZM130.418 42.557C130.418 42.081 130.526 41.654 130.74 41.276C130.955 40.8933 131.247 40.5947 131.615 40.38C131.989 40.1653 132.402 40.058 132.854 40.058C133.386 40.058 133.851 40.1863 134.247 40.443C134.644 40.6997 134.933 41.0637 135.115 41.535H134.352C134.217 41.241 134.021 41.0147 133.764 40.856C133.512 40.6973 133.209 40.618 132.854 40.618C132.514 40.618 132.208 40.6973 131.937 40.856C131.667 41.0147 131.454 41.241 131.3 41.535C131.146 41.8243 131.069 42.165 131.069 42.557C131.069 42.9443 131.146 43.285 131.3 43.579C131.454 43.8683 131.667 44.0923 131.937 44.251C132.208 44.4097 132.514 44.489 132.854 44.489C133.209 44.489 133.512 44.412 133.764 44.258C134.021 44.0993 134.217 43.873 134.352 43.579H135.115C134.933 44.0457 134.644 44.4073 134.247 44.664C133.851 44.916 133.386 45.042 132.854 45.042C132.402 45.042 131.989 44.937 131.615 44.727C131.247 44.5123 130.955 44.216 130.74 43.838C130.526 43.46 130.418 43.033 130.418 42.557ZM139.563 42.935C139.563 43.0563 139.556 43.1847 139.542 43.32H136.476C136.5 43.698 136.628 43.9943 136.861 44.209C137.099 44.419 137.386 44.524 137.722 44.524C137.998 44.524 138.226 44.461 138.408 44.335C138.595 44.2043 138.726 44.0317 138.8 43.817H139.486C139.384 44.1857 139.178 44.4867 138.87 44.72C138.562 44.9487 138.18 45.063 137.722 45.063C137.358 45.063 137.032 44.9813 136.742 44.818C136.458 44.6547 136.234 44.4237 136.07 44.125C135.907 43.8217 135.825 43.4717 135.825 43.075C135.825 42.6783 135.905 42.3307 136.063 42.032C136.222 41.7333 136.444 41.5047 136.728 41.346C137.018 41.1827 137.349 41.101 137.722 41.101C138.086 41.101 138.408 41.1803 138.688 41.339C138.968 41.4977 139.183 41.717 139.332 41.997C139.486 42.2723 139.563 42.585 139.563 42.935ZM138.905 42.802C138.905 42.5593 138.852 42.3517 138.744 42.179C138.637 42.0017 138.49 41.8687 138.303 41.78C138.121 41.6867 137.918 41.64 137.694 41.64C137.372 41.64 137.097 41.7427 136.868 41.948C136.644 42.1533 136.516 42.438 136.483 42.802H138.905ZM141.041 41.787C141.153 41.5677 141.312 41.3973 141.517 41.276C141.727 41.1547 141.982 41.094 142.28 41.094V41.752H142.112C141.398 41.752 141.041 42.1393 141.041 42.914V45H140.404V41.164H141.041V41.787ZM143.793 41.689V43.95C143.793 44.1367 143.832 44.2697 143.912 44.349C143.991 44.4237 144.129 44.461 144.325 44.461H144.794V45H144.22C143.865 45 143.599 44.9183 143.422 44.755C143.244 44.5917 143.156 44.3233 143.156 43.95V41.689H142.659V41.164H143.156V40.198H143.793V41.164H144.794V41.689H143.793ZM145.894 40.541C145.773 40.541 145.67 40.499 145.586 40.415C145.502 40.331 145.46 40.2283 145.46 40.107C145.46 39.9857 145.502 39.883 145.586 39.799C145.67 39.715 145.773 39.673 145.894 39.673C146.011 39.673 146.109 39.715 146.188 39.799C146.272 39.883 146.314 39.9857 146.314 40.107C146.314 40.2283 146.272 40.331 146.188 40.415C146.109 40.499 146.011 40.541 145.894 40.541ZM146.202 41.164V45H145.565V41.164H146.202ZM148.849 41.689H148.044V45H147.407V41.689H146.91V41.164H147.407V40.891C147.407 40.4617 147.517 40.149 147.736 39.953C147.96 39.7523 148.317 39.652 148.807 39.652V40.184C148.527 40.184 148.329 40.24 148.212 40.352C148.1 40.4593 148.044 40.639 148.044 40.891V41.164H148.849V41.689ZM149.921 40.541C149.799 40.541 149.697 40.499 149.613 40.415C149.529 40.331 149.487 40.2283 149.487 40.107C149.487 39.9857 149.529 39.883 149.613 39.799C149.697 39.715 149.799 39.673 149.921 39.673C150.037 39.673 150.135 39.715 150.215 39.799C150.299 39.883 150.341 39.9857 150.341 40.107C150.341 40.2283 150.299 40.331 150.215 40.415C150.135 40.499 150.037 40.541 149.921 40.541ZM150.229 41.164V45H149.592V41.164H150.229ZM151.076 43.075C151.076 42.6783 151.156 42.333 151.314 42.039C151.473 41.7403 151.692 41.5093 151.972 41.346C152.257 41.1827 152.581 41.101 152.945 41.101C153.417 41.101 153.804 41.2153 154.107 41.444C154.415 41.6727 154.618 41.99 154.716 42.396H154.03C153.965 42.1627 153.837 41.9783 153.645 41.843C153.459 41.7077 153.225 41.64 152.945 41.64C152.581 41.64 152.287 41.766 152.063 42.018C151.839 42.2653 151.727 42.6177 151.727 43.075C151.727 43.537 151.839 43.894 152.063 44.146C152.287 44.398 152.581 44.524 152.945 44.524C153.225 44.524 153.459 44.4587 153.645 44.328C153.832 44.1973 153.96 44.0107 154.03 43.768H154.716C154.614 44.16 154.408 44.475 154.1 44.713C153.792 44.9463 153.407 45.063 152.945 45.063C152.581 45.063 152.257 44.9813 151.972 44.818C151.692 44.6547 151.473 44.4237 151.314 44.125C151.156 43.8263 151.076 43.4763 151.076 43.075ZM155.328 43.068C155.328 42.676 155.408 42.333 155.566 42.039C155.725 41.7403 155.942 41.5093 156.217 41.346C156.497 41.1827 156.808 41.101 157.148 41.101C157.484 41.101 157.776 41.1733 158.023 41.318C158.271 41.4627 158.455 41.6447 158.576 41.864V41.164H159.22V45H158.576V44.286C158.45 44.51 158.261 44.6967 158.009 44.846C157.762 44.9907 157.473 45.063 157.141 45.063C156.801 45.063 156.493 44.979 156.217 44.811C155.942 44.643 155.725 44.4073 155.566 44.104C155.408 43.8007 155.328 43.4553 155.328 43.068ZM158.576 43.075C158.576 42.7857 158.518 42.5337 158.401 42.319C158.285 42.1043 158.126 41.941 157.925 41.829C157.729 41.7123 157.512 41.654 157.274 41.654C157.036 41.654 156.819 41.71 156.623 41.822C156.427 41.934 156.271 42.0973 156.154 42.312C156.038 42.5267 155.979 42.7787 155.979 43.068C155.979 43.362 156.038 43.6187 156.154 43.838C156.271 44.0527 156.427 44.2183 156.623 44.335C156.819 44.447 157.036 44.503 157.274 44.503C157.512 44.503 157.729 44.447 157.925 44.335C158.126 44.2183 158.285 44.0527 158.401 43.838C158.518 43.6187 158.576 43.3643 158.576 43.075ZM161.074 41.689V43.95C161.074 44.1367 161.113 44.2697 161.193 44.349C161.272 44.4237 161.41 44.461 161.606 44.461H162.075V45H161.501C161.146 45 160.88 44.9183 160.703 44.755C160.525 44.5917 160.437 44.3233 160.437 43.95V41.689H159.94V41.164H160.437V40.198H161.074V41.164H162.075V41.689H161.074ZM166.347 42.935C166.347 43.0563 166.34 43.1847 166.326 43.32H163.26C163.283 43.698 163.411 43.9943 163.645 44.209C163.883 44.419 164.17 44.524 164.506 44.524C164.781 44.524 165.01 44.461 165.192 44.335C165.378 44.2043 165.509 44.0317 165.584 43.817H166.27C166.167 44.1857 165.962 44.4867 165.654 44.72C165.346 44.9487 164.963 45.063 164.506 45.063C164.142 45.063 163.815 44.9813 163.526 44.818C163.241 44.6547 163.017 44.4237 162.854 44.125C162.69 43.8217 162.609 43.4717 162.609 43.075C162.609 42.6783 162.688 42.3307 162.847 42.032C163.005 41.7333 163.227 41.5047 163.512 41.346C163.801 41.1827 164.132 41.101 164.506 41.101C164.87 41.101 165.192 41.1803 165.472 41.339C165.752 41.4977 165.966 41.717 166.116 41.997C166.27 42.2723 166.347 42.585 166.347 42.935ZM165.689 42.802C165.689 42.5593 165.635 42.3517 165.528 42.179C165.42 42.0017 165.273 41.8687 165.087 41.78C164.905 41.6867 164.702 41.64 164.478 41.64C164.156 41.64 163.88 41.7427 163.652 41.948C163.428 42.1533 163.299 42.438 163.267 42.802H165.689ZM168.545 45.063C168.251 45.063 167.988 45.014 167.754 44.916C167.521 44.8133 167.337 44.6733 167.201 44.496C167.066 44.314 166.991 44.1063 166.977 43.873H167.635C167.654 44.0643 167.743 44.2207 167.901 44.342C168.065 44.4633 168.277 44.524 168.538 44.524C168.781 44.524 168.972 44.4703 169.112 44.363C169.252 44.2557 169.322 44.1203 169.322 43.957C169.322 43.789 169.248 43.6653 169.098 43.586C168.949 43.502 168.718 43.4203 168.405 43.341C168.121 43.2663 167.887 43.1917 167.705 43.117C167.528 43.0377 167.374 42.9233 167.243 42.774C167.117 42.62 167.054 42.4193 167.054 42.172C167.054 41.976 167.113 41.7963 167.229 41.633C167.346 41.4697 167.512 41.3413 167.726 41.248C167.941 41.15 168.186 41.101 168.461 41.101C168.886 41.101 169.229 41.2083 169.49 41.423C169.752 41.6377 169.892 41.9317 169.91 42.305H169.273C169.259 42.1043 169.178 41.9433 169.028 41.822C168.884 41.7007 168.688 41.64 168.44 41.64C168.212 41.64 168.03 41.689 167.894 41.787C167.759 41.885 167.691 42.0133 167.691 42.172C167.691 42.298 167.731 42.403 167.81 42.487C167.894 42.5663 167.997 42.6317 168.118 42.683C168.244 42.7297 168.417 42.7833 168.636 42.844C168.912 42.9187 169.136 42.9933 169.308 43.068C169.481 43.138 169.628 43.2453 169.749 43.39C169.875 43.5347 169.941 43.7237 169.945 43.957C169.945 44.167 169.887 44.356 169.77 44.524C169.654 44.692 169.488 44.825 169.273 44.923C169.063 45.0163 168.821 45.063 168.545 45.063ZM62.4391 56L61.2771 54.005H60.5071V56H59.8701V51.121H61.4451C61.8137 51.121 62.1241 51.184 62.3761 51.31C62.6327 51.436 62.8241 51.6063 62.9501 51.821C63.0761 52.0357 63.1391 52.2807 63.1391 52.556C63.1391 52.892 63.0411 53.1883 62.8451 53.445C62.6537 53.7017 62.3644 53.872 61.9771 53.956L63.2021 56H62.4391ZM60.5071 53.494H61.4451C61.7904 53.494 62.0494 53.41 62.2221 53.242C62.3947 53.0693 62.4811 52.8407 62.4811 52.556C62.4811 52.2667 62.3947 52.0427 62.2221 51.884C62.0541 51.7253 61.7951 51.646 61.4451 51.646H60.5071V53.494ZM67.6288 53.935C67.6288 54.0563 67.6218 54.1847 67.6078 54.32H64.5418C64.5652 54.698 64.6935 54.9943 64.9268 55.209C65.1648 55.419 65.4518 55.524 65.7878 55.524C66.0632 55.524 66.2918 55.461 66.4738 55.335C66.6605 55.2043 66.7912 55.0317 66.8658 54.817H67.5518C67.4492 55.1857 67.2438 55.4867 66.9358 55.72C66.6278 55.9487 66.2452 56.063 65.7878 56.063C65.4238 56.063 65.0972 55.9813 64.8078 55.818C64.5232 55.6547 64.2992 55.4237 64.1358 55.125C63.9725 54.8217 63.8908 54.4717 63.8908 54.075C63.8908 53.6783 63.9702 53.3307 64.1288 53.032C64.2875 52.7333 64.5092 52.5047 64.7938 52.346C65.0832 52.1827 65.4145 52.101 65.7878 52.101C66.1518 52.101 66.4738 52.1803 66.7538 52.339C67.0338 52.4977 67.2485 52.717 67.3978 52.997C67.5518 53.2723 67.6288 53.585 67.6288 53.935ZM66.9708 53.802C66.9708 53.5593 66.9172 53.3517 66.8098 53.179C66.7025 53.0017 66.5555 52.8687 66.3688 52.78C66.1868 52.6867 65.9838 52.64 65.7598 52.64C65.4378 52.64 65.1625 52.7427 64.9338 52.948C64.7098 53.1533 64.5815 53.438 64.5488 53.802H66.9708ZM68.2317 54.068C68.2317 53.676 68.311 53.333 68.4697 53.039C68.6283 52.7403 68.8453 52.5093 69.1207 52.346C69.4007 52.1827 69.711 52.101 70.0517 52.101C70.3877 52.101 70.6793 52.1733 70.9267 52.318C71.174 52.4627 71.3583 52.6447 71.4797 52.864V52.164H72.1237V56H71.4797V55.286C71.3537 55.51 71.1647 55.6967 70.9127 55.846C70.6653 55.9907 70.376 56.063 70.0447 56.063C69.704 56.063 69.396 55.979 69.1207 55.811C68.8453 55.643 68.6283 55.4073 68.4697 55.104C68.311 54.8007 68.2317 54.4553 68.2317 54.068ZM71.4797 54.075C71.4797 53.7857 71.4213 53.5337 71.3047 53.319C71.188 53.1043 71.0293 52.941 70.8287 52.829C70.6327 52.7123 70.4157 52.654 70.1777 52.654C69.9397 52.654 69.7227 52.71 69.5267 52.822C69.3307 52.934 69.1743 53.0973 69.0577 53.312C68.941 53.5267 68.8827 53.7787 68.8827 54.068C68.8827 54.362 68.941 54.6187 69.0577 54.838C69.1743 55.0527 69.3307 55.2183 69.5267 55.335C69.7227 55.447 69.9397 55.503 70.1777 55.503C70.4157 55.503 70.6327 55.447 70.8287 55.335C71.0293 55.2183 71.188 55.0527 71.3047 54.838C71.4213 54.6187 71.4797 54.3643 71.4797 54.075ZM73.8371 50.82V56H73.2001V50.82H73.8371ZM77.5828 53.165V53.704H74.7898V53.165H77.5828ZM81.7813 51.121V51.639H80.4513V56H79.8143V51.639H78.4773V51.121H81.7813ZM82.8944 51.541C82.773 51.541 82.6704 51.499 82.5864 51.415C82.5024 51.331 82.4604 51.2283 82.4604 51.107C82.4604 50.9857 82.5024 50.883 82.5864 50.799C82.6704 50.715 82.773 50.673 82.8944 50.673C83.011 50.673 83.109 50.715 83.1884 50.799C83.2724 50.883 83.3144 50.9857 83.3144 51.107C83.3144 51.2283 83.2724 51.331 83.1884 51.415C83.109 51.499 83.011 51.541 82.8944 51.541ZM83.2024 52.164V56H82.5654V52.164H83.2024ZM88.901 52.094C89.1997 52.094 89.4657 52.157 89.699 52.283C89.9324 52.4043 90.1167 52.5887 90.252 52.836C90.3874 53.0833 90.455 53.3843 90.455 53.739V56H89.825V53.83C89.825 53.4473 89.7294 53.1557 89.538 52.955C89.3514 52.7497 89.097 52.647 88.775 52.647C88.4437 52.647 88.18 52.7543 87.984 52.969C87.788 53.179 87.69 53.4847 87.69 53.886V56H87.06V53.83C87.06 53.4473 86.9644 53.1557 86.773 52.955C86.5864 52.7497 86.332 52.647 86.01 52.647C85.6787 52.647 85.415 52.7543 85.219 52.969C85.023 53.179 84.925 53.4847 84.925 53.886V56H84.288V52.164H84.925V52.717C85.051 52.5163 85.219 52.3623 85.429 52.255C85.6437 52.1477 85.8794 52.094 86.136 52.094C86.458 52.094 86.7427 52.1663 86.99 52.311C87.2374 52.4557 87.4217 52.668 87.543 52.948C87.6504 52.6773 87.8277 52.4673 88.075 52.318C88.3224 52.1687 88.5977 52.094 88.901 52.094ZM94.9999 53.935C94.9999 54.0563 94.9929 54.1847 94.9789 54.32H91.9129C91.9363 54.698 92.0646 54.9943 92.2979 55.209C92.5359 55.419 92.8229 55.524 93.1589 55.524C93.4343 55.524 93.6629 55.461 93.8449 55.335C94.0316 55.2043 94.1623 55.0317 94.2369 54.817H94.9229C94.8203 55.1857 94.6149 55.4867 94.3069 55.72C93.9989 55.9487 93.6163 56.063 93.1589 56.063C92.7949 56.063 92.4683 55.9813 92.1789 55.818C91.8943 55.6547 91.6703 55.4237 91.5069 55.125C91.3436 54.8217 91.2619 54.4717 91.2619 54.075C91.2619 53.6783 91.3413 53.3307 91.4999 53.032C91.6586 52.7333 91.8803 52.5047 92.1649 52.346C92.4543 52.1827 92.7856 52.101 93.1589 52.101C93.5229 52.101 93.8449 52.1803 94.1249 52.339C94.4049 52.4977 94.6196 52.717 94.7689 52.997C94.9229 53.2723 94.9999 53.585 94.9999 53.935ZM94.3419 53.802C94.3419 53.5593 94.2883 53.3517 94.1809 53.179C94.0736 53.0017 93.9266 52.8687 93.7399 52.78C93.5579 52.6867 93.3549 52.64 93.1309 52.64C92.8089 52.64 92.5336 52.7427 92.3049 52.948C92.0809 53.1533 91.9526 53.438 91.9199 53.802H94.3419ZM102.656 51.156V56H102.019V52.388L100.409 56H99.961L98.344 52.381V56H97.707V51.156H98.393L100.185 55.16L101.977 51.156H102.656ZM105.409 56.063C105.05 56.063 104.723 55.9813 104.429 55.818C104.14 55.6547 103.911 55.4237 103.743 55.125C103.58 54.8217 103.498 54.4717 103.498 54.075C103.498 53.683 103.582 53.3377 103.75 53.039C103.923 52.7357 104.156 52.5047 104.45 52.346C104.744 52.1827 105.073 52.101 105.437 52.101C105.801 52.101 106.13 52.1827 106.424 52.346C106.718 52.5047 106.949 52.7333 107.117 53.032C107.29 53.3307 107.376 53.6783 107.376 54.075C107.376 54.4717 107.288 54.8217 107.11 55.125C106.938 55.4237 106.702 55.6547 106.403 55.818C106.105 55.9813 105.773 56.063 105.409 56.063ZM105.409 55.503C105.638 55.503 105.853 55.4493 106.053 55.342C106.254 55.2347 106.415 55.0737 106.536 54.859C106.662 54.6443 106.725 54.383 106.725 54.075C106.725 53.767 106.665 53.5057 106.543 53.291C106.422 53.0763 106.263 52.9177 106.067 52.815C105.871 52.7077 105.659 52.654 105.43 52.654C105.197 52.654 104.982 52.7077 104.786 52.815C104.595 52.9177 104.441 53.0763 104.324 53.291C104.208 53.5057 104.149 53.767 104.149 54.075C104.149 54.3877 104.205 54.6513 104.317 54.866C104.434 55.0807 104.588 55.2417 104.779 55.349C104.971 55.4517 105.181 55.503 105.409 55.503ZM110.083 52.094C110.549 52.094 110.927 52.2363 111.217 52.521C111.506 52.801 111.651 53.207 111.651 53.739V56H111.021V53.83C111.021 53.4473 110.925 53.1557 110.734 52.955C110.542 52.7497 110.281 52.647 109.95 52.647C109.614 52.647 109.345 52.752 109.145 52.962C108.949 53.172 108.851 53.4777 108.851 53.879V56H108.214V52.164H108.851V52.71C108.977 52.514 109.147 52.3623 109.362 52.255C109.581 52.1477 109.821 52.094 110.083 52.094ZM113.02 51.541C112.899 51.541 112.796 51.499 112.712 51.415C112.628 51.331 112.586 51.2283 112.586 51.107C112.586 50.9857 112.628 50.883 112.712 50.799C112.796 50.715 112.899 50.673 113.02 50.673C113.137 50.673 113.235 50.715 113.314 50.799C113.398 50.883 113.44 50.9857 113.44 51.107C113.44 51.2283 113.398 51.331 113.314 51.415C113.235 51.499 113.137 51.541 113.02 51.541ZM113.328 52.164V56H112.691V52.164H113.328ZM115.191 52.689V54.95C115.191 55.1367 115.231 55.2697 115.31 55.349C115.389 55.4237 115.527 55.461 115.723 55.461H116.192V56H115.618C115.263 56 114.997 55.9183 114.82 55.755C114.643 55.5917 114.554 55.3233 114.554 54.95V52.689H114.057V52.164H114.554V51.198H115.191V52.164H116.192V52.689H115.191ZM118.637 56.063C118.277 56.063 117.951 55.9813 117.657 55.818C117.367 55.6547 117.139 55.4237 116.971 55.125C116.807 54.8217 116.726 54.4717 116.726 54.075C116.726 53.683 116.81 53.3377 116.978 53.039C117.15 52.7357 117.384 52.5047 117.678 52.346C117.972 52.1827 118.301 52.101 118.665 52.101C119.029 52.101 119.358 52.1827 119.652 52.346C119.946 52.5047 120.177 52.7333 120.345 53.032C120.517 53.3307 120.604 53.6783 120.604 54.075C120.604 54.4717 120.515 54.8217 120.338 55.125C120.165 55.4237 119.929 55.6547 119.631 55.818C119.332 55.9813 119.001 56.063 118.637 56.063ZM118.637 55.503C118.865 55.503 119.08 55.4493 119.281 55.342C119.481 55.2347 119.642 55.0737 119.764 54.859C119.89 54.6443 119.953 54.383 119.953 54.075C119.953 53.767 119.892 53.5057 119.771 53.291C119.649 53.0763 119.491 52.9177 119.295 52.815C119.099 52.7077 118.886 52.654 118.658 52.654C118.424 52.654 118.21 52.7077 118.014 52.815C117.822 52.9177 117.668 53.0763 117.552 53.291C117.435 53.5057 117.377 53.767 117.377 54.075C117.377 54.3877 117.433 54.6513 117.545 54.866C117.661 55.0807 117.815 55.2417 118.007 55.349C118.198 55.4517 118.408 55.503 118.637 55.503ZM122.078 52.787C122.19 52.5677 122.349 52.3973 122.554 52.276C122.764 52.1547 123.019 52.094 123.317 52.094V52.752H123.149C122.435 52.752 122.078 53.1393 122.078 53.914V56H121.441V52.164H122.078V52.787ZM124.382 51.541C124.26 51.541 124.158 51.499 124.074 51.415C123.99 51.331 123.948 51.2283 123.948 51.107C123.948 50.9857 123.99 50.883 124.074 50.799C124.158 50.715 124.26 50.673 124.382 50.673C124.498 50.673 124.596 50.715 124.676 50.799C124.76 50.883 124.802 50.9857 124.802 51.107C124.802 51.2283 124.76 51.331 124.676 51.415C124.596 51.499 124.498 51.541 124.382 51.541ZM124.69 52.164V56H124.053V52.164H124.69ZM127.644 52.094C128.111 52.094 128.489 52.2363 128.778 52.521C129.068 52.801 129.212 53.207 129.212 53.739V56H128.582V53.83C128.582 53.4473 128.487 53.1557 128.295 52.955C128.104 52.7497 127.843 52.647 127.511 52.647C127.175 52.647 126.907 52.752 126.706 52.962C126.51 53.172 126.412 53.4777 126.412 53.879V56H125.775V52.164H126.412V52.71C126.538 52.514 126.709 52.3623 126.923 52.255C127.143 52.1477 127.383 52.094 127.644 52.094ZM131.835 52.101C132.166 52.101 132.456 52.1733 132.703 52.318C132.955 52.4627 133.142 52.6447 133.263 52.864V52.164H133.907V56.084C133.907 56.434 133.832 56.7443 133.683 57.015C133.534 57.2903 133.319 57.505 133.039 57.659C132.764 57.813 132.442 57.89 132.073 57.89C131.569 57.89 131.149 57.771 130.813 57.533C130.477 57.295 130.279 56.9707 130.218 56.56H130.848C130.918 56.7933 131.063 56.98 131.282 57.12C131.501 57.2647 131.765 57.337 132.073 57.337C132.423 57.337 132.708 57.2273 132.927 57.008C133.151 56.7887 133.263 56.4807 133.263 56.084V55.279C133.137 55.503 132.95 55.6897 132.703 55.839C132.456 55.9883 132.166 56.063 131.835 56.063C131.494 56.063 131.184 55.979 130.904 55.811C130.629 55.643 130.412 55.4073 130.253 55.104C130.094 54.8007 130.015 54.4553 130.015 54.068C130.015 53.676 130.094 53.333 130.253 53.039C130.412 52.7403 130.629 52.5093 130.904 52.346C131.184 52.1827 131.494 52.101 131.835 52.101ZM133.263 54.075C133.263 53.7857 133.205 53.5337 133.088 53.319C132.971 53.1043 132.813 52.941 132.612 52.829C132.416 52.7123 132.199 52.654 131.961 52.654C131.723 52.654 131.506 52.71 131.31 52.822C131.114 52.934 130.958 53.0973 130.841 53.312C130.724 53.5267 130.666 53.7787 130.666 54.068C130.666 54.362 130.724 54.6187 130.841 54.838C130.958 55.0527 131.114 55.2183 131.31 55.335C131.506 55.447 131.723 55.503 131.961 55.503C132.199 55.503 132.416 55.447 132.612 55.335C132.813 55.2183 132.971 55.0527 133.088 54.838C133.205 54.6187 133.263 54.3643 133.263 54.075ZM138.397 56.049C138.075 56.049 137.785 55.993 137.529 55.881C137.277 55.7643 137.078 55.6057 136.934 55.405C136.789 55.1997 136.714 54.964 136.71 54.698H137.389C137.412 54.9267 137.505 55.1203 137.669 55.279C137.837 55.433 138.079 55.51 138.397 55.51C138.7 55.51 138.938 55.4353 139.111 55.286C139.288 55.132 139.377 54.936 139.377 54.698C139.377 54.5113 139.325 54.3597 139.223 54.243C139.12 54.1263 138.992 54.0377 138.838 53.977C138.684 53.9163 138.476 53.851 138.215 53.781C137.893 53.697 137.634 53.613 137.438 53.529C137.246 53.445 137.081 53.3143 136.941 53.137C136.805 52.955 136.738 52.7123 136.738 52.409C136.738 52.143 136.805 51.9073 136.941 51.702C137.076 51.4967 137.265 51.338 137.508 51.226C137.755 51.114 138.037 51.058 138.355 51.058C138.812 51.058 139.185 51.1723 139.475 51.401C139.769 51.6297 139.934 51.933 139.972 52.311H139.272C139.248 52.1243 139.15 51.961 138.978 51.821C138.805 51.6763 138.576 51.604 138.292 51.604C138.026 51.604 137.809 51.674 137.641 51.814C137.473 51.9493 137.389 52.1407 137.389 52.388C137.389 52.5653 137.438 52.71 137.536 52.822C137.638 52.934 137.762 53.0203 137.907 53.081C138.056 53.137 138.264 53.2023 138.53 53.277C138.852 53.3657 139.111 53.4543 139.307 53.543C139.503 53.627 139.671 53.76 139.811 53.942C139.951 54.1193 140.021 54.362 140.021 54.67C140.021 54.908 139.958 55.132 139.832 55.342C139.706 55.552 139.519 55.7223 139.272 55.853C139.024 55.9837 138.733 56.049 138.397 56.049ZM144.262 52.164L141.952 57.806H141.294L142.05 55.958L140.503 52.164H141.21L142.414 55.272L143.604 52.164H144.262ZM146.26 56.063C145.966 56.063 145.703 56.014 145.469 55.916C145.236 55.8133 145.052 55.6733 144.916 55.496C144.781 55.314 144.706 55.1063 144.692 54.873H145.35C145.369 55.0643 145.458 55.2207 145.616 55.342C145.78 55.4633 145.992 55.524 146.253 55.524C146.496 55.524 146.687 55.4703 146.827 55.363C146.967 55.2557 147.037 55.1203 147.037 54.957C147.037 54.789 146.963 54.6653 146.813 54.586C146.664 54.502 146.433 54.4203 146.12 54.341C145.836 54.2663 145.602 54.1917 145.42 54.117C145.243 54.0377 145.089 53.9233 144.958 53.774C144.832 53.62 144.769 53.4193 144.769 53.172C144.769 52.976 144.828 52.7963 144.944 52.633C145.061 52.4697 145.227 52.3413 145.441 52.248C145.656 52.15 145.901 52.101 146.176 52.101C146.601 52.101 146.944 52.2083 147.205 52.423C147.467 52.6377 147.607 52.9317 147.625 53.305H146.988C146.974 53.1043 146.893 52.9433 146.743 52.822C146.599 52.7007 146.403 52.64 146.155 52.64C145.927 52.64 145.745 52.689 145.609 52.787C145.474 52.885 145.406 53.0133 145.406 53.172C145.406 53.298 145.446 53.403 145.525 53.487C145.609 53.5663 145.712 53.6317 145.833 53.683C145.959 53.7297 146.132 53.7833 146.351 53.844C146.627 53.9187 146.851 53.9933 147.023 54.068C147.196 54.138 147.343 54.2453 147.464 54.39C147.59 54.5347 147.656 54.7237 147.66 54.957C147.66 55.167 147.602 55.356 147.485 55.524C147.369 55.692 147.203 55.825 146.988 55.923C146.778 56.0163 146.536 56.063 146.26 56.063ZM149.337 52.689V54.95C149.337 55.1367 149.376 55.2697 149.456 55.349C149.535 55.4237 149.673 55.461 149.869 55.461H150.338V56H149.764C149.409 56 149.143 55.9183 148.966 55.755C148.788 55.5917 148.7 55.3233 148.7 54.95V52.689H148.203V52.164H148.7V51.198H149.337V52.164H150.338V52.689H149.337ZM154.609 53.935C154.609 54.0563 154.602 54.1847 154.588 54.32H151.522C151.546 54.698 151.674 54.9943 151.907 55.209C152.145 55.419 152.432 55.524 152.768 55.524C153.044 55.524 153.272 55.461 153.454 55.335C153.641 55.2043 153.772 55.0317 153.846 54.817H154.532C154.43 55.1857 154.224 55.4867 153.916 55.72C153.608 55.9487 153.226 56.063 152.768 56.063C152.404 56.063 152.078 55.9813 151.788 55.818C151.504 55.6547 151.28 55.4237 151.116 55.125C150.953 54.8217 150.871 54.4717 150.871 54.075C150.871 53.6783 150.951 53.3307 151.109 53.032C151.268 52.7333 151.49 52.5047 151.774 52.346C152.064 52.1827 152.395 52.101 152.768 52.101C153.132 52.101 153.454 52.1803 153.734 52.339C154.014 52.4977 154.229 52.717 154.378 52.997C154.532 53.2723 154.609 53.585 154.609 53.935ZM153.951 53.802C153.951 53.5593 153.898 53.3517 153.79 53.179C153.683 53.0017 153.536 52.8687 153.349 52.78C153.167 52.6867 152.964 52.64 152.74 52.64C152.418 52.64 152.143 52.7427 151.914 52.948C151.69 53.1533 151.562 53.438 151.529 53.802H153.951ZM160.063 52.094C160.362 52.094 160.628 52.157 160.861 52.283C161.094 52.4043 161.279 52.5887 161.414 52.836C161.549 53.0833 161.617 53.3843 161.617 53.739V56H160.987V53.83C160.987 53.4473 160.891 53.1557 160.7 52.955C160.513 52.7497 160.259 52.647 159.937 52.647C159.606 52.647 159.342 52.7543 159.146 52.969C158.95 53.179 158.852 53.4847 158.852 53.886V56H158.222V53.83C158.222 53.4473 158.126 53.1557 157.935 52.955C157.748 52.7497 157.494 52.647 157.172 52.647C156.841 52.647 156.577 52.7543 156.381 52.969C156.185 53.179 156.087 53.4847 156.087 53.886V56H155.45V52.164H156.087V52.717C156.213 52.5163 156.381 52.3623 156.591 52.255C156.806 52.1477 157.041 52.094 157.298 52.094C157.62 52.094 157.905 52.1663 158.152 52.311C158.399 52.4557 158.584 52.668 158.705 52.948C158.812 52.6773 158.99 52.4673 159.237 52.318C159.484 52.1687 159.76 52.094 160.063 52.094Z" fill="#03346E"/>
<path d="M4 10C4 7.17157 4 5.75736 4.87868 4.87868C5.75736 4 7.17157 4 10 4H48V64H10C7.17157 64 5.75736 64 4.87868 63.1213C4 62.2426 4 60.8284 4 58V10Z" fill="white" fill-opacity="0.55"/>
<path d="M31.8721 53.4479L31.0578 54.6693C31.2789 54.8167 31.5358 54.9013 31.8012 54.9141C32.0666 54.927 32.3305 54.8675 32.5647 54.7421C32.799 54.6168 32.9948 54.4302 33.1314 54.2023C33.2679 53.9743 33.3401 53.7136 33.3401 53.4479H31.8721ZM26 49.5332L26.8143 48.3118C26.5731 48.1511 26.2898 48.0653 26 48.0653C25.7102 48.0653 25.4269 48.1511 25.1857 48.3118L26 49.5332ZM20.1279 53.4479H18.6599C18.6599 53.7136 18.7321 53.9743 18.8686 54.2023C19.0052 54.4302 19.201 54.6168 19.4353 54.7421C19.6695 54.8675 19.9334 54.927 20.1988 54.9141C20.4642 54.9013 20.7211 54.8167 20.9422 54.6693L20.1279 53.4479ZM32.6863 52.2265L26.8143 48.3118L25.1857 50.7546L31.0578 54.6693L32.6863 52.2265ZM25.1857 48.3118L19.3137 52.2265L20.9422 54.6693L26.8143 50.7546L25.1857 48.3118ZM27.8634 16.7984L27.9456 16.8963L30.1829 14.9937L30.0987 14.8958L27.8634 16.7984ZM32.4769 18.7734L32.6041 18.7616L32.3692 15.8354L32.242 15.8471L32.4769 18.7734ZM35.2407 21.3962L35.2289 21.5254L38.1552 21.7603L38.1669 21.6331L35.2407 21.3962ZM37.106 26.0547L37.2039 26.1389L39.1065 23.9036L39.0086 23.8194L37.106 26.0547ZM37.2039 29.8657L37.106 29.9479L39.0086 32.1852L39.1065 32.101L37.2039 29.8657ZM35.2289 34.4792L35.2407 34.6064L38.1669 34.3715L38.1552 34.2443L35.2289 34.4792ZM32.6061 37.243L32.4769 37.2312L32.242 40.1575L32.3692 40.1692L32.6061 37.243ZM27.9476 39.1083L27.8634 39.2062L30.0987 41.1088L30.1829 41.0109L27.9476 39.1083ZM24.1366 39.2062L24.0524 39.1083L21.8171 41.0109L21.9013 41.1088L24.1366 39.2062ZM19.5231 37.2312L19.3959 37.241L19.6308 40.1692L19.758 40.1594L19.5231 37.2312ZM16.7593 34.6084L16.7711 34.4792L13.8448 34.2443L13.8331 34.3715L16.7593 34.6084ZM14.894 29.9499L14.7961 29.8657L12.8935 32.101L12.9914 32.1852L14.894 29.9499ZM14.7961 26.1389L14.894 26.0547L12.9914 23.8194L12.8935 23.9036L14.7961 26.1389ZM16.7711 21.5254L16.7593 21.3982L13.8331 21.6331L13.8448 21.7603L16.7711 21.5254ZM19.3939 18.7616L19.5231 18.7734L19.758 15.8471L19.6308 15.8354L19.3939 18.7616ZM24.0524 16.8963L24.1366 16.7984L21.9013 14.8958L21.8171 14.9937L24.0524 16.8963ZM19.5231 18.7734C20.3733 18.8415 21.2274 18.7067 22.0152 18.38C22.8031 18.0533 23.502 17.5441 24.0544 16.8943L21.8171 14.9937C21.566 15.2889 21.2484 15.5202 20.8904 15.6685C20.5324 15.8169 20.1443 15.8781 19.758 15.8471L19.5231 18.7734ZM16.7593 21.3982C16.7312 21.045 16.7802 20.6879 16.9028 20.3555C17.0254 20.0231 17.2188 19.7213 17.4695 19.4709C17.7203 19.2206 18.0224 19.0277 18.355 18.9055C18.6876 18.7834 19.0427 18.735 19.3959 18.7636L19.6308 15.8373C18.8535 15.7747 18.0719 15.8817 17.3401 16.1509C16.6082 16.4201 15.9436 16.8451 15.3922 17.3965C14.8409 17.9479 14.4159 18.6125 14.1466 19.3443C13.8774 20.0762 13.7704 20.8578 13.8331 21.635L16.7593 21.3982ZM14.894 26.0547C15.5431 25.5023 16.0518 24.8036 16.3781 24.0162C16.7045 23.2288 16.8392 22.3751 16.7711 21.5254L13.8448 21.7603C13.9075 22.5432 13.5904 23.3105 12.9914 23.8194L14.894 26.0547ZM14.7961 29.8657C14.5262 29.636 14.3093 29.3504 14.1607 29.0287C14.012 28.7069 13.935 28.3567 13.935 28.0023C13.935 27.6479 14.012 27.2977 14.1607 26.9759C14.3093 26.6542 14.5262 26.3686 14.7961 26.1389L12.8935 23.9036C12.3 24.4089 11.8232 25.0371 11.4963 25.7448C11.1693 26.4525 11 27.2227 11 28.0023C11 28.7819 11.1693 29.5521 11.4963 30.2598C11.8232 30.9675 12.3 31.5957 12.8935 32.101L14.7961 29.8657ZM16.7711 34.4792C16.8392 33.629 16.7044 32.7749 16.3777 31.9871C16.051 31.1992 15.5418 30.5003 14.892 29.9479L12.9914 32.1852C13.5904 32.6941 13.9075 33.4614 13.8448 34.2443L16.7711 34.4792ZM19.3939 37.243C19.0406 37.2714 18.6853 37.2226 18.3526 37.1001C18.0199 36.9776 17.7179 36.7843 17.4673 36.5336C17.2167 36.2828 17.0236 35.9806 16.9014 35.6478C16.7792 35.3151 16.7307 34.9598 16.7593 34.6064L13.8331 34.3715C13.7704 35.1488 13.8774 35.9304 14.1466 36.6622C14.4159 37.3941 14.8409 38.0587 15.3922 38.6101C15.9436 39.1614 16.6082 39.5864 17.3401 39.8557C18.0719 40.1249 18.8535 40.2319 19.6308 40.1692L19.3939 37.243ZM27.8634 39.2062C27.6337 39.4761 27.3481 39.693 27.0264 39.8416C26.7046 39.9903 26.3544 40.0673 26 40.0673C25.6456 40.0673 25.2954 39.9903 24.9736 39.8416C24.6519 39.693 24.3663 39.4761 24.1366 39.2062L21.9013 41.1088C22.4066 41.7023 23.0348 42.1791 23.7425 42.506C24.4502 42.833 25.2204 43.0023 26 43.0023C26.7796 43.0023 27.5498 42.833 28.2575 42.506C28.9652 42.1791 29.5934 41.7023 30.0987 41.1088L27.8634 39.2062ZM35.2407 34.6064C35.2691 34.9598 35.2203 35.3151 35.0978 35.6477C34.9753 35.9804 34.782 36.2825 34.5313 36.533C34.2805 36.7836 33.9783 36.9767 33.6455 37.0989C33.3128 37.2212 32.9575 37.2697 32.6041 37.241L32.3692 40.1692C33.1465 40.2319 33.9281 40.1249 34.6599 39.8557C35.3918 39.5864 36.0564 39.1614 36.6078 38.6101C37.1591 38.0587 37.5841 37.3941 37.8534 36.6622C38.1226 35.9304 38.2296 35.1488 38.1669 34.3715L35.2407 34.6064ZM37.106 29.9479C36.4566 30.5005 35.9478 31.1995 35.6214 31.9873C35.295 32.7751 35.1605 33.6292 35.2289 34.4792L38.1552 34.2443C38.0925 33.4614 38.4096 32.6941 39.0086 32.1852L37.106 29.9479ZM37.2039 26.1389C37.4738 26.3686 37.6907 26.6542 37.8393 26.9759C37.988 27.2977 38.065 27.6479 38.065 28.0023C38.065 28.3567 37.988 28.7069 37.8393 29.0287C37.6907 29.3504 37.4738 29.636 37.2039 29.8657L39.1065 32.101C39.7 31.5957 40.1768 30.9675 40.5037 30.2598C40.8307 29.5521 41 28.7819 41 28.0023C41 27.2227 40.8307 26.4525 40.5037 25.7448C40.1768 25.0371 39.7 24.4089 39.1065 23.9036L37.2039 26.1389ZM35.2289 21.5254C35.1608 22.3756 35.2956 23.2297 35.6223 24.0175C35.949 24.8054 36.4582 25.5043 37.108 26.0567L39.0086 23.8194C38.7134 23.5683 38.4822 23.2507 38.3338 22.8927C38.1854 22.5347 38.1242 22.1466 38.1552 21.7603L35.2289 21.5254ZM32.6061 18.7616C32.9594 18.7332 33.3147 18.782 33.6474 18.9045C33.9801 19.027 34.2821 19.2203 34.5327 19.471C34.7833 19.7218 34.9764 20.024 35.0986 20.3568C35.2208 20.6895 35.2693 21.0429 35.2407 21.3962L38.1669 21.6331C38.2296 20.8558 38.1226 20.0742 37.8534 19.3424C37.5841 18.6105 37.1591 17.9459 36.6078 17.3945C36.0564 16.8432 35.3918 16.4182 34.6599 16.1489C33.9281 15.8797 33.1465 15.7727 32.3692 15.8354L32.6061 18.7616ZM27.9456 16.8963C28.498 17.5454 29.1987 18.0541 29.9861 18.3804C30.7735 18.7068 31.6272 18.8415 32.4769 18.7734L32.242 15.8471C31.8557 15.8781 31.4676 15.8169 31.1096 15.6685C30.7516 15.5202 30.434 15.2889 30.1829 14.9937L27.9456 16.8963ZM30.1007 14.8958C29.5953 14.3016 28.9669 13.8242 28.2589 13.4969C27.5508 13.1695 26.7801 13 26 13C25.2199 13 24.4492 13.1695 23.7411 13.4969C23.0331 13.8242 22.4047 14.3016 21.8993 14.8958L24.1366 16.7984C24.3663 16.5285 24.6519 16.3116 24.9736 16.163C25.2954 16.0143 25.6456 15.9373 26 15.9373C26.3544 15.9373 26.7046 16.0143 27.0264 16.163C27.3481 16.3116 27.6337 16.5285 27.8634 16.7984L30.1007 14.8958ZM24.0524 39.1083C23.5733 38.5453 22.9832 38.087 22.3191 37.762C21.6551 37.437 20.9311 37.2524 20.1925 37.2195L20.0633 40.1536C20.7367 40.1829 21.3748 40.4902 21.8171 41.0109L24.0524 39.1083ZM20.1925 37.2195C19.9693 37.2107 19.7458 37.2146 19.5231 37.2312L19.758 40.1575C19.8598 40.1497 19.9616 40.1483 20.0633 40.1536L20.1925 37.2195ZM21.596 53.4479V38.6855H18.6599V53.4479H21.596ZM32.4789 37.2312C32.2555 37.2145 32.0313 37.2106 31.8075 37.2195L31.9367 40.1536C32.0384 40.1483 32.1402 40.1497 32.242 40.1575L32.4789 37.2312ZM31.8075 37.2195C31.0685 37.2521 30.3442 37.4367 29.6798 37.7616C29.0153 38.0866 28.427 38.5451 27.9476 39.1083L30.1829 41.0109C30.4007 40.7553 30.6688 40.5472 30.9706 40.3997C31.2723 40.2522 31.6011 40.1684 31.9367 40.1536L31.8075 37.2195ZM30.4041 38.6875V53.4479H33.3401V38.6855L30.4041 38.6875Z" fill="#03346E"/>
<path d="M29.9147 26.0449L24.0427 31.917L22.0853 29.9596" stroke="#03346E" stroke-width="1.5" stroke-linecap="round" stroke-linejoin="round"/>
<defs>
<filter id="filter0_d_64_24" x="0" y="0" width="183" height="68" filterUnits="userSpaceOnUse" color-interpolation-filters="sRGB">
<feFlood flood-opacity="0" result="BackgroundImageFix"/>
<feColorMatrix in="SourceAlpha" type="matrix" values="0 0 0 0 0 0 0 0 0 0 0 0 0 0 0 0 0 0 127 0" result="hardAlpha"/>
<feOffset/>
<feGaussianBlur stdDeviation="2"/>
<feComposite in2="hardAlpha" operator="out"/>
<feColorMatrix type="matrix" values="0 0 0 0 0 0 0 0 0 0 0 0 0 0 0 0 0 0 0.25 0"/>
<feBlend mode="normal" in2="BackgroundImageFix" result="effect1_dropShadow_64_24"/>
<feBlend mode="normal" in="SourceGraphic" in2="effect1_dropShadow_64_24" result="shape"/>
</filter>
</defs>
</svg>
