<svg width="183" height="68" viewBox="0 0 183 68" fill="none" xmlns="http://www.w3.org/2000/svg">
<g filter="url(#filter0_d_41_2)">
<rect x="4" y="4" width="175" height="60" rx="3" fill="white"/>
</g>
<path d="M53.8651 34V15.0909H60.956C62.4086 15.0909 63.6274 15.3433 64.6122 15.848C65.6032 16.3527 66.3511 17.0606 66.8558 17.9716C67.3667 18.8764 67.6222 19.9321 67.6222 21.1385C67.6222 22.3511 67.3636 23.4036 66.8466 24.2962C66.3357 25.1825 65.5817 25.8688 64.5845 26.3551C63.5874 26.8352 62.3625 27.0753 60.9098 27.0753H55.8594V24.2315H60.4482C61.2976 24.2315 61.9931 24.1146 62.5348 23.8807C63.0765 23.6406 63.4766 23.2928 63.7351 22.8374C63.9998 22.3757 64.1321 21.8094 64.1321 21.1385C64.1321 20.4676 63.9998 19.8951 63.7351 19.4212C63.4704 18.9411 63.0672 18.5779 62.5256 18.3317C61.9839 18.0793 61.2853 17.9531 60.4297 17.9531H57.2905V34H53.8651ZM63.6335 25.4318L68.3146 34H64.4922L59.8942 25.4318H63.6335ZM77.1829 34H70.7752V15.0909H77.3121C79.1895 15.0909 80.8022 15.4695 82.1502 16.2266C83.5044 16.9775 84.5446 18.0578 85.271 19.4673C85.9973 20.8769 86.3604 22.5634 86.3604 24.527C86.3604 26.4967 85.9942 28.1894 85.2617 29.6051C84.5354 31.0208 83.4859 32.1072 82.1133 32.8643C80.7468 33.6214 79.1033 34 77.1829 34ZM74.2006 31.0362H77.0167C78.3339 31.0362 79.4326 30.7962 80.3129 30.3161C81.1931 29.8298 81.8548 29.1065 82.2979 28.1463C82.7411 27.1799 82.9627 25.9735 82.9627 24.527C82.9627 23.0805 82.7411 21.8802 82.2979 20.9261C81.8548 19.9659 81.1992 19.2488 80.3313 18.7749C79.4696 18.2947 78.3986 18.0547 77.1183 18.0547H74.2006V31.0362ZM105.8 21.4709H102.347C102.249 20.9046 102.067 20.4029 101.803 19.9659C101.538 19.5227 101.209 19.1473 100.815 18.8395C100.421 18.5317 99.9714 18.3009 99.4666 18.147C98.968 17.987 98.4295 17.907 97.8509 17.907C96.8229 17.907 95.9119 18.1655 95.1179 18.6825C94.3239 19.1934 93.7022 19.9444 93.2528 20.9354C92.8035 21.9202 92.5788 23.1236 92.5788 24.5455C92.5788 25.992 92.8035 27.2107 93.2528 28.2017C93.7083 29.1866 94.33 29.9313 95.1179 30.4361C95.9119 30.9347 96.8198 31.1839 97.8416 31.1839C98.4079 31.1839 98.9373 31.1101 99.4297 30.9624C99.9283 30.8085 100.375 30.5838 100.768 30.2884C101.169 29.9929 101.504 29.6297 101.775 29.1989C102.052 28.768 102.243 28.2756 102.347 27.7216L105.8 27.7401C105.671 28.6387 105.391 29.482 104.96 30.2699C104.536 31.0578 103.978 31.7533 103.289 32.3565C102.6 32.9536 101.793 33.4214 100.87 33.7599C99.9467 34.0923 98.9219 34.2585 97.7955 34.2585C96.1335 34.2585 94.6501 33.8738 93.3452 33.1044C92.0402 32.335 91.0123 31.224 90.2614 29.7713C89.5104 28.3187 89.1349 26.5767 89.1349 24.5455C89.1349 22.508 89.5135 20.7661 90.2706 19.3196C91.0277 17.867 92.0587 16.7559 93.3636 15.9865C94.6686 15.2171 96.1458 14.8324 97.7955 14.8324C98.848 14.8324 99.8267 14.9801 100.732 15.2756C101.636 15.571 102.443 16.005 103.151 16.5774C103.858 17.1437 104.44 17.8393 104.896 18.6641C105.357 19.4827 105.659 20.4183 105.8 21.4709ZM108.937 34V15.0909H116.028C117.481 15.0909 118.7 15.3433 119.684 15.848C120.675 16.3527 121.423 17.0606 121.928 17.9716C122.439 18.8764 122.694 19.9321 122.694 21.1385C122.694 22.3511 122.436 23.4036 121.919 24.2962C121.408 25.1825 120.654 25.8688 119.657 26.3551C118.66 26.8352 117.435 27.0753 115.982 27.0753H110.932V24.2315H115.52C116.37 24.2315 117.065 24.1146 117.607 23.8807C118.149 23.6406 118.549 23.2928 118.807 22.8374C119.072 22.3757 119.204 21.8094 119.204 21.1385C119.204 20.4676 119.072 19.8951 118.807 19.4212C118.543 18.9411 118.14 18.5779 117.598 18.3317C117.056 18.0793 116.358 17.9531 115.502 17.9531H112.363V34H108.937ZM118.706 25.4318L123.387 34H119.564L114.966 25.4318H118.706ZM125.847 15.0909H130.039L135.653 28.7926H135.874L141.488 15.0909H145.68V34H142.393V21.0092H142.218L136.992 33.9446H134.536L129.31 20.9815H129.134V34H125.847V15.0909ZM159.686 20.2891C159.6 19.4827 159.237 18.8549 158.597 18.4055C157.963 17.9562 157.138 17.7315 156.122 17.7315C155.408 17.7315 154.796 17.8393 154.285 18.0547C153.774 18.2701 153.383 18.5625 153.112 18.9318C152.842 19.3011 152.703 19.7228 152.697 20.1967C152.697 20.5907 152.786 20.9323 152.965 21.2216C153.149 21.5109 153.399 21.7571 153.713 21.9602C154.026 22.1572 154.374 22.3234 154.756 22.4588C155.137 22.5942 155.522 22.7081 155.91 22.8004L157.683 23.2436C158.397 23.4098 159.083 23.6345 159.742 23.9176C160.406 24.2008 161 24.5578 161.524 24.9886C162.053 25.4195 162.472 25.9396 162.779 26.549C163.087 27.1584 163.241 27.8724 163.241 28.6911C163.241 29.799 162.958 30.7746 162.392 31.6179C161.825 32.455 161.007 33.1106 159.936 33.5845C158.871 34.0523 157.581 34.2862 156.067 34.2862C154.596 34.2862 153.319 34.0585 152.235 33.603C151.158 33.1475 150.315 32.4827 149.705 31.6087C149.102 30.7346 148.776 29.6697 148.727 28.4141H152.097C152.146 29.0727 152.349 29.6205 152.706 30.0575C153.063 30.4946 153.528 30.8208 154.1 31.0362C154.679 31.2517 155.325 31.3594 156.039 31.3594C156.784 31.3594 157.436 31.2486 157.997 31.027C158.563 30.7992 159.006 30.4853 159.326 30.0852C159.646 29.679 159.809 29.205 159.816 28.6634C159.809 28.1709 159.665 27.7647 159.382 27.4446C159.098 27.1184 158.701 26.8475 158.191 26.6321C157.686 26.4105 157.095 26.2135 156.418 26.0412L154.267 25.4872C152.709 25.0871 151.478 24.4808 150.573 23.6683C149.675 22.8497 149.225 21.7633 149.225 20.4091C149.225 19.295 149.527 18.3194 150.13 17.4822C150.74 16.6451 151.567 15.9957 152.614 15.5341C153.66 15.0663 154.845 14.8324 156.169 14.8324C157.51 14.8324 158.686 15.0663 159.695 15.5341C160.711 15.9957 161.508 16.639 162.087 17.4638C162.665 18.2824 162.964 19.2242 162.982 20.2891H159.686Z" fill="#03346E"/>
<path d="M57.108 44L55.946 42.005H55.176V44H54.539V39.121H56.114C56.4827 39.121 56.793 39.184 57.045 39.31C57.3017 39.436 57.493 39.6063 57.619 39.821C57.745 40.0357 57.808 40.2807 57.808 40.556C57.808 40.892 57.71 41.1883 57.514 41.445C57.3227 41.7017 57.0333 41.872 56.646 41.956L57.871 44H57.108ZM55.176 41.494H56.114C56.4593 41.494 56.7183 41.41 56.891 41.242C57.0637 41.0693 57.15 40.8407 57.15 40.556C57.15 40.2667 57.0637 40.0427 56.891 39.884C56.723 39.7253 56.464 39.646 56.114 39.646H55.176V41.494ZM62.2978 41.935C62.2978 42.0563 62.2908 42.1847 62.2768 42.32H59.2108C59.2341 42.698 59.3625 42.9943 59.5958 43.209C59.8338 43.419 60.1208 43.524 60.4568 43.524C60.7321 43.524 60.9608 43.461 61.1428 43.335C61.3295 43.2043 61.4601 43.0317 61.5348 42.817H62.2208C62.1181 43.1857 61.9128 43.4867 61.6048 43.72C61.2968 43.9487 60.9141 44.063 60.4568 44.063C60.0928 44.063 59.7661 43.9813 59.4768 43.818C59.1921 43.6547 58.9681 43.4237 58.8048 43.125C58.6415 42.8217 58.5598 42.4717 58.5598 42.075C58.5598 41.6783 58.6391 41.3307 58.7978 41.032C58.9565 40.7333 59.1781 40.5047 59.4628 40.346C59.7521 40.1827 60.0835 40.101 60.4568 40.101C60.8208 40.101 61.1428 40.1803 61.4228 40.339C61.7028 40.4977 61.9175 40.717 62.0668 40.997C62.2208 41.2723 62.2978 41.585 62.2978 41.935ZM61.6398 41.802C61.6398 41.5593 61.5861 41.3517 61.4788 41.179C61.3715 41.0017 61.2245 40.8687 61.0378 40.78C60.8558 40.6867 60.6528 40.64 60.4288 40.64C60.1068 40.64 59.8315 40.7427 59.6028 40.948C59.3788 41.1533 59.2505 41.438 59.2178 41.802H61.6398ZM64.5666 43.412L65.7566 40.164H66.4356L64.9306 44H64.1886L62.6836 40.164H63.3696L64.5666 43.412ZM70.5624 41.935C70.5624 42.0563 70.5554 42.1847 70.5414 42.32H67.4754C67.4988 42.698 67.6271 42.9943 67.8604 43.209C68.0984 43.419 68.3854 43.524 68.7214 43.524C68.9968 43.524 69.2254 43.461 69.4074 43.335C69.5941 43.2043 69.7248 43.0317 69.7994 42.817H70.4854C70.3828 43.1857 70.1774 43.4867 69.8694 43.72C69.5614 43.9487 69.1788 44.063 68.7214 44.063C68.3574 44.063 68.0308 43.9813 67.7414 43.818C67.4568 43.6547 67.2328 43.4237 67.0694 43.125C66.9061 42.8217 66.8244 42.4717 66.8244 42.075C66.8244 41.6783 66.9038 41.3307 67.0624 41.032C67.2211 40.7333 67.4428 40.5047 67.7274 40.346C68.0168 40.1827 68.3481 40.101 68.7214 40.101C69.0854 40.101 69.4074 40.1803 69.6874 40.339C69.9674 40.4977 70.1821 40.717 70.3314 40.997C70.4854 41.2723 70.5624 41.585 70.5624 41.935ZM69.9044 41.802C69.9044 41.5593 69.8508 41.3517 69.7434 41.179C69.6361 41.0017 69.4891 40.8687 69.3024 40.78C69.1204 40.6867 68.9174 40.64 68.6934 40.64C68.3714 40.64 68.0961 40.7427 67.8674 40.948C67.6434 41.1533 67.5151 41.438 67.4824 41.802H69.9044ZM73.2723 40.094C73.7389 40.094 74.1169 40.2363 74.4063 40.521C74.6956 40.801 74.8403 41.207 74.8403 41.739V44H74.2103V41.83C74.2103 41.4473 74.1146 41.1557 73.9233 40.955C73.7319 40.7497 73.4706 40.647 73.1393 40.647C72.8033 40.647 72.5349 40.752 72.3343 40.962C72.1383 41.172 72.0403 41.4777 72.0403 41.879V44H71.4033V40.164H72.0403V40.71C72.1663 40.514 72.3366 40.3623 72.5513 40.255C72.7706 40.1477 73.0109 40.094 73.2723 40.094ZM79.2828 40.164V44H78.6458V43.433C78.5245 43.629 78.3541 43.783 78.1348 43.895C77.9201 44.0023 77.6821 44.056 77.4208 44.056C77.1221 44.056 76.8538 43.9953 76.6158 43.874C76.3778 43.748 76.1888 43.5613 76.0488 43.314C75.9135 43.0667 75.8458 42.7657 75.8458 42.411V40.164H76.4758V42.327C76.4758 42.705 76.5715 42.9967 76.7628 43.202C76.9541 43.4027 77.2155 43.503 77.5468 43.503C77.8875 43.503 78.1558 43.398 78.3518 43.188C78.5478 42.978 78.6458 42.6723 78.6458 42.271V40.164H79.2828ZM83.8583 41.935C83.8583 42.0563 83.8513 42.1847 83.8373 42.32H80.7713C80.7947 42.698 80.923 42.9943 81.1563 43.209C81.3943 43.419 81.6813 43.524 82.0173 43.524C82.2927 43.524 82.5213 43.461 82.7033 43.335C82.89 43.2043 83.0207 43.0317 83.0953 42.817H83.7813C83.6787 43.1857 83.4733 43.4867 83.1653 43.72C82.8573 43.9487 82.4747 44.063 82.0173 44.063C81.6533 44.063 81.3267 43.9813 81.0373 43.818C80.7527 43.6547 80.5287 43.4237 80.3653 43.125C80.202 42.8217 80.1203 42.4717 80.1203 42.075C80.1203 41.6783 80.1997 41.3307 80.3583 41.032C80.517 40.7333 80.7387 40.5047 81.0233 40.346C81.3127 40.1827 81.644 40.101 82.0173 40.101C82.3813 40.101 82.7033 40.1803 82.9833 40.339C83.2633 40.4977 83.478 40.717 83.6273 40.997C83.7813 41.2723 83.8583 41.585 83.8583 41.935ZM83.2003 41.802C83.2003 41.5593 83.1467 41.3517 83.0393 41.179C82.932 41.0017 82.785 40.8687 82.5983 40.78C82.4163 40.6867 82.2133 40.64 81.9893 40.64C81.6673 40.64 81.392 40.7427 81.1633 40.948C80.9393 41.1533 80.811 41.438 80.7783 41.802H83.2003ZM88.0844 39.121C88.6164 39.121 89.076 39.2213 89.4634 39.422C89.8554 39.618 90.154 39.9003 90.3594 40.269C90.5694 40.6377 90.6744 41.0717 90.6744 41.571C90.6744 42.0703 90.5694 42.5043 90.3594 42.873C90.154 43.237 89.8554 43.517 89.4634 43.713C89.076 43.9043 88.6164 44 88.0844 44H86.5654V39.121H88.0844ZM88.0844 43.475C88.7144 43.475 89.195 43.3093 89.5264 42.978C89.8577 42.642 90.0234 42.173 90.0234 41.571C90.0234 40.9643 89.8554 40.4907 89.5194 40.15C89.188 39.8093 88.7097 39.639 88.0844 39.639H87.2024V43.475H88.0844ZM95.0146 41.935C95.0146 42.0563 95.0076 42.1847 94.9936 42.32H91.9276C91.9509 42.698 92.0793 42.9943 92.3126 43.209C92.5506 43.419 92.8376 43.524 93.1736 43.524C93.4489 43.524 93.6776 43.461 93.8596 43.335C94.0463 43.2043 94.1769 43.0317 94.2516 42.817H94.9376C94.8349 43.1857 94.6296 43.4867 94.3216 43.72C94.0136 43.9487 93.6309 44.063 93.1736 44.063C92.8096 44.063 92.4829 43.9813 92.1936 43.818C91.9089 43.6547 91.6849 43.4237 91.5216 43.125C91.3583 42.8217 91.2766 42.4717 91.2766 42.075C91.2766 41.6783 91.3559 41.3307 91.5146 41.032C91.6733 40.7333 91.8949 40.5047 92.1796 40.346C92.4689 40.1827 92.8003 40.101 93.1736 40.101C93.5376 40.101 93.8596 40.1803 94.1396 40.339C94.4196 40.4977 94.6343 40.717 94.7836 40.997C94.9376 41.2723 95.0146 41.585 95.0146 41.935ZM94.3566 41.802C94.3566 41.5593 94.3029 41.3517 94.1956 41.179C94.0883 41.0017 93.9413 40.8687 93.7546 40.78C93.5726 40.6867 93.3696 40.64 93.1456 40.64C92.8236 40.64 92.5483 40.7427 92.3196 40.948C92.0956 41.1533 91.9673 41.438 91.9346 41.802H94.3566ZM96.4924 40.871C96.6184 40.6517 96.8051 40.4697 97.0524 40.325C97.3044 40.1757 97.5961 40.101 97.9274 40.101C98.2681 40.101 98.5761 40.1827 98.8514 40.346C99.1314 40.5093 99.3507 40.7403 99.5094 41.039C99.6681 41.333 99.7474 41.676 99.7474 42.068C99.7474 42.4553 99.6681 42.8007 99.5094 43.104C99.3507 43.4073 99.1314 43.643 98.8514 43.811C98.5761 43.979 98.2681 44.063 97.9274 44.063C97.6007 44.063 97.3114 43.9907 97.0594 43.846C96.8121 43.6967 96.6231 43.5123 96.4924 43.293V45.82H95.8554V40.164H96.4924V40.871ZM99.0964 42.068C99.0964 41.7787 99.0381 41.5267 98.9214 41.312C98.8047 41.0973 98.6461 40.934 98.4454 40.822C98.2494 40.71 98.0324 40.654 97.7944 40.654C97.5611 40.654 97.3441 40.7123 97.1434 40.829C96.9474 40.941 96.7887 41.1067 96.6674 41.326C96.5507 41.5407 96.4924 41.7903 96.4924 42.075C96.4924 42.3643 96.5507 42.6187 96.6674 42.838C96.7887 43.0527 96.9474 43.2183 97.1434 43.335C97.3441 43.447 97.5611 43.503 97.7944 43.503C98.0324 43.503 98.2494 43.447 98.4454 43.335C98.6461 43.2183 98.8047 43.0527 98.9214 42.838C99.0381 42.6187 99.0964 42.362 99.0964 42.068ZM100.348 42.068C100.348 41.676 100.427 41.333 100.586 41.039C100.745 40.7403 100.962 40.5093 101.237 40.346C101.517 40.1827 101.827 40.101 102.168 40.101C102.504 40.101 102.796 40.1733 103.043 40.318C103.29 40.4627 103.475 40.6447 103.596 40.864V40.164H104.24V44H103.596V43.286C103.47 43.51 103.281 43.6967 103.029 43.846C102.782 43.9907 102.492 44.063 102.161 44.063C101.82 44.063 101.512 43.979 101.237 43.811C100.962 43.643 100.745 43.4073 100.586 43.104C100.427 42.8007 100.348 42.4553 100.348 42.068ZM103.596 42.075C103.596 41.7857 103.538 41.5337 103.421 41.319C103.304 41.1043 103.146 40.941 102.945 40.829C102.749 40.7123 102.532 40.654 102.294 40.654C102.056 40.654 101.839 40.71 101.643 40.822C101.447 40.934 101.291 41.0973 101.174 41.312C101.057 41.5267 100.999 41.7787 100.999 42.068C100.999 42.362 101.057 42.6187 101.174 42.838C101.291 43.0527 101.447 43.2183 101.643 43.335C101.839 43.447 102.056 43.503 102.294 43.503C102.532 43.503 102.749 43.447 102.945 43.335C103.146 43.2183 103.304 43.0527 103.421 42.838C103.538 42.6187 103.596 42.3643 103.596 42.075ZM105.953 40.787C106.065 40.5677 106.224 40.3973 106.429 40.276C106.639 40.1547 106.894 40.094 107.192 40.094V40.752H107.024C106.31 40.752 105.953 41.1393 105.953 41.914V44H105.316V40.164H105.953V40.787ZM108.705 40.689V42.95C108.705 43.1367 108.744 43.2697 108.824 43.349C108.903 43.4237 109.041 43.461 109.237 43.461H109.706V44H109.132C108.777 44 108.511 43.9183 108.334 43.755C108.156 43.5917 108.068 43.3233 108.068 42.95V40.689H107.571V40.164H108.068V39.198H108.705V40.164H109.706V40.689H108.705ZM115.09 40.094C115.389 40.094 115.655 40.157 115.888 40.283C116.122 40.4043 116.306 40.5887 116.441 40.836C116.577 41.0833 116.644 41.3843 116.644 41.739V44H116.014V41.83C116.014 41.4473 115.919 41.1557 115.727 40.955C115.541 40.7497 115.286 40.647 114.964 40.647C114.633 40.647 114.369 40.7543 114.173 40.969C113.977 41.179 113.879 41.4847 113.879 41.886V44H113.249V41.83C113.249 41.4473 113.154 41.1557 112.962 40.955C112.776 40.7497 112.521 40.647 112.199 40.647C111.868 40.647 111.604 40.7543 111.408 40.969C111.212 41.179 111.114 41.4847 111.114 41.886V44H110.477V40.164H111.114V40.717C111.24 40.5163 111.408 40.3623 111.618 40.255C111.833 40.1477 112.069 40.094 112.325 40.094C112.647 40.094 112.932 40.1663 113.179 40.311C113.427 40.4557 113.611 40.668 113.732 40.948C113.84 40.6773 114.017 40.4673 114.264 40.318C114.512 40.1687 114.787 40.094 115.09 40.094ZM121.189 41.935C121.189 42.0563 121.182 42.1847 121.168 42.32H118.102C118.126 42.698 118.254 42.9943 118.487 43.209C118.725 43.419 119.012 43.524 119.348 43.524C119.624 43.524 119.852 43.461 120.034 43.335C120.221 43.2043 120.352 43.0317 120.426 42.817H121.112C121.01 43.1857 120.804 43.4867 120.496 43.72C120.188 43.9487 119.806 44.063 119.348 44.063C118.984 44.063 118.658 43.9813 118.368 43.818C118.084 43.6547 117.86 43.4237 117.696 43.125C117.533 42.8217 117.451 42.4717 117.451 42.075C117.451 41.6783 117.531 41.3307 117.689 41.032C117.848 40.7333 118.07 40.5047 118.354 40.346C118.644 40.1827 118.975 40.101 119.348 40.101C119.712 40.101 120.034 40.1803 120.314 40.339C120.594 40.4977 120.809 40.717 120.958 40.997C121.112 41.2723 121.189 41.585 121.189 41.935ZM120.531 41.802C120.531 41.5593 120.478 41.3517 120.37 41.179C120.263 41.0017 120.116 40.8687 119.929 40.78C119.747 40.6867 119.544 40.64 119.32 40.64C118.998 40.64 118.723 40.7427 118.494 40.948C118.27 41.1533 118.142 41.438 118.109 41.802H120.531ZM123.899 40.094C124.366 40.094 124.744 40.2363 125.033 40.521C125.323 40.801 125.467 41.207 125.467 41.739V44H124.837V41.83C124.837 41.4473 124.742 41.1557 124.55 40.955C124.359 40.7497 124.098 40.647 123.766 40.647C123.43 40.647 123.162 40.752 122.961 40.962C122.765 41.172 122.667 41.4777 122.667 41.879V44H122.03V40.164H122.667V40.71C122.793 40.514 122.964 40.3623 123.178 40.255C123.398 40.1477 123.638 40.094 123.899 40.094ZM127.285 40.689V42.95C127.285 43.1367 127.324 43.2697 127.404 43.349C127.483 43.4237 127.621 43.461 127.817 43.461H128.286V44H127.712C127.357 44 127.091 43.9183 126.914 43.755C126.736 43.5917 126.648 43.3233 126.648 42.95V40.689H126.151V40.164H126.648V39.198H127.285V40.164H128.286V40.689H127.285ZM130.686 41.557C130.686 41.081 130.793 40.654 131.008 40.276C131.222 39.8933 131.514 39.5947 131.883 39.38C132.256 39.1653 132.669 39.058 133.122 39.058C133.654 39.058 134.118 39.1863 134.515 39.443C134.911 39.6997 135.201 40.0637 135.383 40.535H134.62C134.484 40.241 134.288 40.0147 134.032 39.856C133.78 39.6973 133.476 39.618 133.122 39.618C132.781 39.618 132.475 39.6973 132.205 39.856C131.934 40.0147 131.722 40.241 131.568 40.535C131.414 40.8243 131.337 41.165 131.337 41.557C131.337 41.9443 131.414 42.285 131.568 42.579C131.722 42.8683 131.934 43.0923 132.205 43.251C132.475 43.4097 132.781 43.489 133.122 43.489C133.476 43.489 133.78 43.412 134.032 43.258C134.288 43.0993 134.484 42.873 134.62 42.579H135.383C135.201 43.0457 134.911 43.4073 134.515 43.664C134.118 43.916 133.654 44.042 133.122 44.042C132.669 44.042 132.256 43.937 131.883 43.727C131.514 43.5123 131.222 43.216 131.008 42.838C130.793 42.46 130.686 42.033 130.686 41.557ZM139.831 41.935C139.831 42.0563 139.824 42.1847 139.81 42.32H136.744C136.767 42.698 136.896 42.9943 137.129 43.209C137.367 43.419 137.654 43.524 137.99 43.524C138.265 43.524 138.494 43.461 138.676 43.335C138.863 43.2043 138.993 43.0317 139.068 42.817H139.754C139.651 43.1857 139.446 43.4867 139.138 43.72C138.83 43.9487 138.447 44.063 137.99 44.063C137.626 44.063 137.299 43.9813 137.01 43.818C136.725 43.6547 136.501 43.4237 136.338 43.125C136.175 42.8217 136.093 42.4717 136.093 42.075C136.093 41.6783 136.172 41.3307 136.331 41.032C136.49 40.7333 136.711 40.5047 136.996 40.346C137.285 40.1827 137.617 40.101 137.99 40.101C138.354 40.101 138.676 40.1803 138.956 40.339C139.236 40.4977 139.451 40.717 139.6 40.997C139.754 41.2723 139.831 41.585 139.831 41.935ZM139.173 41.802C139.173 41.5593 139.119 41.3517 139.012 41.179C138.905 41.0017 138.758 40.8687 138.571 40.78C138.389 40.6867 138.186 40.64 137.962 40.64C137.64 40.64 137.365 40.7427 137.136 40.948C136.912 41.1533 136.784 41.438 136.751 41.802H139.173ZM141.309 40.787C141.421 40.5677 141.579 40.3973 141.785 40.276C141.995 40.1547 142.249 40.094 142.548 40.094V40.752H142.38C141.666 40.752 141.309 41.1393 141.309 41.914V44H140.672V40.164H141.309V40.787ZM144.06 40.689V42.95C144.06 43.1367 144.1 43.2697 144.179 43.349C144.258 43.4237 144.396 43.461 144.592 43.461H145.061V44H144.487C144.132 44 143.866 43.9183 143.689 43.755C143.512 43.5917 143.423 43.3233 143.423 42.95V40.689H142.926V40.164H143.423V39.198H144.06V40.164H145.061V40.689H144.06ZM146.162 39.541C146.041 39.541 145.938 39.499 145.854 39.415C145.77 39.331 145.728 39.2283 145.728 39.107C145.728 38.9857 145.77 38.883 145.854 38.799C145.938 38.715 146.041 38.673 146.162 38.673C146.279 38.673 146.377 38.715 146.456 38.799C146.54 38.883 146.582 38.9857 146.582 39.107C146.582 39.2283 146.54 39.331 146.456 39.415C146.377 39.499 146.279 39.541 146.162 39.541ZM146.47 40.164V44H145.833V40.164H146.47ZM149.117 40.689H148.312V44H147.675V40.689H147.178V40.164H147.675V39.891C147.675 39.4617 147.784 39.149 148.004 38.953C148.228 38.7523 148.585 38.652 149.075 38.652V39.184C148.795 39.184 148.596 39.24 148.48 39.352C148.368 39.4593 148.312 39.639 148.312 39.891V40.164H149.117V40.689ZM150.188 39.541C150.067 39.541 149.964 39.499 149.88 39.415C149.796 39.331 149.754 39.2283 149.754 39.107C149.754 38.9857 149.796 38.883 149.88 38.799C149.964 38.715 150.067 38.673 150.188 38.673C150.305 38.673 150.403 38.715 150.482 38.799C150.566 38.883 150.608 38.9857 150.608 39.107C150.608 39.2283 150.566 39.331 150.482 39.415C150.403 39.499 150.305 39.541 150.188 39.541ZM150.496 40.164V44H149.859V40.164H150.496ZM151.344 42.075C151.344 41.6783 151.423 41.333 151.582 41.039C151.741 40.7403 151.96 40.5093 152.24 40.346C152.525 40.1827 152.849 40.101 153.213 40.101C153.684 40.101 154.072 40.2153 154.375 40.444C154.683 40.6727 154.886 40.99 154.984 41.396H154.298C154.233 41.1627 154.104 40.9783 153.913 40.843C153.726 40.7077 153.493 40.64 153.213 40.64C152.849 40.64 152.555 40.766 152.331 41.018C152.107 41.2653 151.995 41.6177 151.995 42.075C151.995 42.537 152.107 42.894 152.331 43.146C152.555 43.398 152.849 43.524 153.213 43.524C153.493 43.524 153.726 43.4587 153.913 43.328C154.1 43.1973 154.228 43.0107 154.298 42.768H154.984C154.881 43.16 154.676 43.475 154.368 43.713C154.06 43.9463 153.675 44.063 153.213 44.063C152.849 44.063 152.525 43.9813 152.24 43.818C151.96 43.6547 151.741 43.4237 151.582 43.125C151.423 42.8263 151.344 42.4763 151.344 42.075ZM155.596 42.068C155.596 41.676 155.675 41.333 155.834 41.039C155.993 40.7403 156.21 40.5093 156.485 40.346C156.765 40.1827 157.075 40.101 157.416 40.101C157.752 40.101 158.044 40.1733 158.291 40.318C158.538 40.4627 158.723 40.6447 158.844 40.864V40.164H159.488V44H158.844V43.286C158.718 43.51 158.529 43.6967 158.277 43.846C158.03 43.9907 157.74 44.063 157.409 44.063C157.068 44.063 156.76 43.979 156.485 43.811C156.21 43.643 155.993 43.4073 155.834 43.104C155.675 42.8007 155.596 42.4553 155.596 42.068ZM158.844 42.075C158.844 41.7857 158.786 41.5337 158.669 41.319C158.552 41.1043 158.394 40.941 158.193 40.829C157.997 40.7123 157.78 40.654 157.542 40.654C157.304 40.654 157.087 40.71 156.891 40.822C156.695 40.934 156.539 41.0973 156.422 41.312C156.305 41.5267 156.247 41.7787 156.247 42.068C156.247 42.362 156.305 42.6187 156.422 42.838C156.539 43.0527 156.695 43.2183 156.891 43.335C157.087 43.447 157.304 43.503 157.542 43.503C157.78 43.503 157.997 43.447 158.193 43.335C158.394 43.2183 158.552 43.0527 158.669 42.838C158.786 42.6187 158.844 42.3643 158.844 42.075ZM161.341 40.689V42.95C161.341 43.1367 161.381 43.2697 161.46 43.349C161.54 43.4237 161.677 43.461 161.873 43.461H162.342V44H161.768C161.414 44 161.148 43.9183 160.97 43.755C160.793 43.5917 160.704 43.3233 160.704 42.95V40.689H160.207V40.164H160.704V39.198H161.341V40.164H162.342V40.689H161.341ZM166.614 41.935C166.614 42.0563 166.607 42.1847 166.593 42.32H163.527C163.551 42.698 163.679 42.9943 163.912 43.209C164.15 43.419 164.437 43.524 164.773 43.524C165.049 43.524 165.277 43.461 165.459 43.335C165.646 43.2043 165.777 43.0317 165.851 42.817H166.537C166.435 43.1857 166.229 43.4867 165.921 43.72C165.613 43.9487 165.231 44.063 164.773 44.063C164.409 44.063 164.083 43.9813 163.793 43.818C163.509 43.6547 163.285 43.4237 163.121 43.125C162.958 42.8217 162.876 42.4717 162.876 42.075C162.876 41.6783 162.956 41.3307 163.114 41.032C163.273 40.7333 163.495 40.5047 163.779 40.346C164.069 40.1827 164.4 40.101 164.773 40.101C165.137 40.101 165.459 40.1803 165.739 40.339C166.019 40.4977 166.234 40.717 166.383 40.997C166.537 41.2723 166.614 41.585 166.614 41.935ZM165.956 41.802C165.956 41.5593 165.903 41.3517 165.795 41.179C165.688 41.0017 165.541 40.8687 165.354 40.78C165.172 40.6867 164.969 40.64 164.745 40.64C164.423 40.64 164.148 40.7427 163.919 40.948C163.695 41.1533 163.567 41.438 163.534 41.802H165.956ZM168.813 44.063C168.519 44.063 168.255 44.014 168.022 43.916C167.789 43.8133 167.604 43.6733 167.469 43.496C167.334 43.314 167.259 43.1063 167.245 42.873H167.903C167.922 43.0643 168.01 43.2207 168.169 43.342C168.332 43.4633 168.545 43.524 168.806 43.524C169.049 43.524 169.24 43.4703 169.38 43.363C169.52 43.2557 169.59 43.1203 169.59 42.957C169.59 42.789 169.515 42.6653 169.366 42.586C169.217 42.502 168.986 42.4203 168.673 42.341C168.388 42.2663 168.155 42.1917 167.973 42.117C167.796 42.0377 167.642 41.9233 167.511 41.774C167.385 41.62 167.322 41.4193 167.322 41.172C167.322 40.976 167.38 40.7963 167.497 40.633C167.614 40.4697 167.779 40.3413 167.994 40.248C168.209 40.15 168.454 40.101 168.729 40.101C169.154 40.101 169.497 40.2083 169.758 40.423C170.019 40.6377 170.159 40.9317 170.178 41.305H169.541C169.527 41.1043 169.445 40.9433 169.296 40.822C169.151 40.7007 168.955 40.64 168.708 40.64C168.479 40.64 168.297 40.689 168.162 40.787C168.027 40.885 167.959 41.0133 167.959 41.172C167.959 41.298 167.999 41.403 168.078 41.487C168.162 41.5663 168.265 41.6317 168.386 41.683C168.512 41.7297 168.685 41.7833 168.904 41.844C169.179 41.9187 169.403 41.9933 169.576 42.068C169.749 42.138 169.896 42.2453 170.017 42.39C170.143 42.5347 170.208 42.7237 170.213 42.957C170.213 43.167 170.155 43.356 170.038 43.524C169.921 43.692 169.756 43.825 169.541 43.923C169.331 44.0163 169.088 44.063 168.813 44.063ZM57.108 55L55.946 53.005H55.176V55H54.539V50.121H56.114C56.4827 50.121 56.793 50.184 57.045 50.31C57.3017 50.436 57.493 50.6063 57.619 50.821C57.745 51.0357 57.808 51.2807 57.808 51.556C57.808 51.892 57.71 52.1883 57.514 52.445C57.3227 52.7017 57.0333 52.872 56.646 52.956L57.871 55H57.108ZM55.176 52.494H56.114C56.4593 52.494 56.7183 52.41 56.891 52.242C57.0637 52.0693 57.15 51.8407 57.15 51.556C57.15 51.2667 57.0637 51.0427 56.891 50.884C56.723 50.7253 56.464 50.646 56.114 50.646H55.176V52.494ZM62.2978 52.935C62.2978 53.0563 62.2908 53.1847 62.2768 53.32H59.2108C59.2341 53.698 59.3625 53.9943 59.5958 54.209C59.8338 54.419 60.1208 54.524 60.4568 54.524C60.7321 54.524 60.9608 54.461 61.1428 54.335C61.3295 54.2043 61.4601 54.0317 61.5348 53.817H62.2208C62.1181 54.1857 61.9128 54.4867 61.6048 54.72C61.2968 54.9487 60.9141 55.063 60.4568 55.063C60.0928 55.063 59.7661 54.9813 59.4768 54.818C59.1921 54.6547 58.9681 54.4237 58.8048 54.125C58.6415 53.8217 58.5598 53.4717 58.5598 53.075C58.5598 52.6783 58.6391 52.3307 58.7978 52.032C58.9565 51.7333 59.1781 51.5047 59.4628 51.346C59.7521 51.1827 60.0835 51.101 60.4568 51.101C60.8208 51.101 61.1428 51.1803 61.4228 51.339C61.7028 51.4977 61.9175 51.717 62.0668 51.997C62.2208 52.2723 62.2978 52.585 62.2978 52.935ZM61.6398 52.802C61.6398 52.5593 61.5861 52.3517 61.4788 52.179C61.3715 52.0017 61.2245 51.8687 61.0378 51.78C60.8558 51.6867 60.6528 51.64 60.4288 51.64C60.1068 51.64 59.8315 51.7427 59.6028 51.948C59.3788 52.1533 59.2505 52.438 59.2178 52.802H61.6398ZM62.9006 53.068C62.9006 52.676 62.9799 52.333 63.1386 52.039C63.2973 51.7403 63.5143 51.5093 63.7896 51.346C64.0696 51.1827 64.3799 51.101 64.7206 51.101C65.0566 51.101 65.3483 51.1733 65.5956 51.318C65.8429 51.4627 66.0273 51.6447 66.1486 51.864V51.164H66.7926V55H66.1486V54.286C66.0226 54.51 65.8336 54.6967 65.5816 54.846C65.3343 54.9907 65.0449 55.063 64.7136 55.063C64.3729 55.063 64.0649 54.979 63.7896 54.811C63.5143 54.643 63.2973 54.4073 63.1386 54.104C62.9799 53.8007 62.9006 53.4553 62.9006 53.068ZM66.1486 53.075C66.1486 52.7857 66.0903 52.5337 65.9736 52.319C65.8569 52.1043 65.6983 51.941 65.4976 51.829C65.3016 51.7123 65.0846 51.654 64.8466 51.654C64.6086 51.654 64.3916 51.71 64.1956 51.822C63.9996 51.934 63.8433 52.0973 63.7266 52.312C63.6099 52.5267 63.5516 52.7787 63.5516 53.068C63.5516 53.362 63.6099 53.6187 63.7266 53.838C63.8433 54.0527 63.9996 54.2183 64.1956 54.335C64.3916 54.447 64.6086 54.503 64.8466 54.503C65.0846 54.503 65.3016 54.447 65.4976 54.335C65.6983 54.2183 65.8569 54.0527 65.9736 53.838C66.0903 53.6187 66.1486 53.3643 66.1486 53.075ZM68.5061 49.82V55H67.8691V49.82H68.5061ZM72.2517 52.165V52.704H69.4587V52.165H72.2517ZM76.4502 50.121V50.639H75.1202V55H74.4832V50.639H73.1462V50.121H76.4502ZM77.5633 50.541C77.442 50.541 77.3393 50.499 77.2553 50.415C77.1713 50.331 77.1293 50.2283 77.1293 50.107C77.1293 49.9857 77.1713 49.883 77.2553 49.799C77.3393 49.715 77.442 49.673 77.5633 49.673C77.68 49.673 77.778 49.715 77.8573 49.799C77.9413 49.883 77.9833 49.9857 77.9833 50.107C77.9833 50.2283 77.9413 50.331 77.8573 50.415C77.778 50.499 77.68 50.541 77.5633 50.541ZM77.8713 51.164V55H77.2343V51.164H77.8713ZM83.57 51.094C83.8686 51.094 84.1346 51.157 84.368 51.283C84.6013 51.4043 84.7856 51.5887 84.921 51.836C85.0563 52.0833 85.124 52.3843 85.124 52.739V55H84.494V52.83C84.494 52.4473 84.3983 52.1557 84.207 51.955C84.0203 51.7497 83.766 51.647 83.444 51.647C83.1126 51.647 82.849 51.7543 82.653 51.969C82.457 52.179 82.359 52.4847 82.359 52.886V55H81.729V52.83C81.729 52.4473 81.6333 52.1557 81.442 51.955C81.2553 51.7497 81.001 51.647 80.679 51.647C80.3476 51.647 80.084 51.7543 79.888 51.969C79.692 52.179 79.594 52.4847 79.594 52.886V55H78.957V51.164H79.594V51.717C79.72 51.5163 79.888 51.3623 80.098 51.255C80.3126 51.1477 80.5483 51.094 80.805 51.094C81.127 51.094 81.4116 51.1663 81.659 51.311C81.9063 51.4557 82.0906 51.668 82.212 51.948C82.3193 51.6773 82.4966 51.4673 82.744 51.318C82.9913 51.1687 83.2666 51.094 83.57 51.094ZM89.6689 52.935C89.6689 53.0563 89.6619 53.1847 89.6479 53.32H86.5819C86.6052 53.698 86.7335 53.9943 86.9669 54.209C87.2049 54.419 87.4919 54.524 87.8279 54.524C88.1032 54.524 88.3319 54.461 88.5139 54.335C88.7005 54.2043 88.8312 54.0317 88.9059 53.817H89.5919C89.4892 54.1857 89.2839 54.4867 88.9759 54.72C88.6679 54.9487 88.2852 55.063 87.8279 55.063C87.4639 55.063 87.1372 54.9813 86.8479 54.818C86.5632 54.6547 86.3392 54.4237 86.1759 54.125C86.0125 53.8217 85.9309 53.4717 85.9309 53.075C85.9309 52.6783 86.0102 52.3307 86.1689 52.032C86.3275 51.7333 86.5492 51.5047 86.8339 51.346C87.1232 51.1827 87.4545 51.101 87.8279 51.101C88.1919 51.101 88.5139 51.1803 88.7939 51.339C89.0739 51.4977 89.2885 51.717 89.4379 51.997C89.5919 52.2723 89.6689 52.585 89.6689 52.935ZM89.0109 52.802C89.0109 52.5593 88.9572 52.3517 88.8499 52.179C88.7425 52.0017 88.5955 51.8687 88.4089 51.78C88.2269 51.6867 88.0239 51.64 87.7999 51.64C87.4779 51.64 87.2025 51.7427 86.9739 51.948C86.7499 52.1533 86.6215 52.438 86.5889 52.802H89.0109ZM97.3249 50.156V55H96.6879V51.388L95.0779 55H94.6299L93.0129 51.381V55H92.3759V50.156H93.0619L94.8539 54.16L96.6459 50.156H97.3249ZM100.078 55.063C99.7189 55.063 99.3922 54.9813 99.0982 54.818C98.8089 54.6547 98.5802 54.4237 98.4122 54.125C98.2489 53.8217 98.1672 53.4717 98.1672 53.075C98.1672 52.683 98.2512 52.3377 98.4192 52.039C98.5919 51.7357 98.8252 51.5047 99.1192 51.346C99.4132 51.1827 99.7422 51.101 100.106 51.101C100.47 51.101 100.799 51.1827 101.093 51.346C101.387 51.5047 101.618 51.7333 101.786 52.032C101.959 52.3307 102.045 52.6783 102.045 53.075C102.045 53.4717 101.957 53.8217 101.779 54.125C101.607 54.4237 101.371 54.6547 101.072 54.818C100.774 54.9813 100.442 55.063 100.078 55.063ZM100.078 54.503C100.307 54.503 100.522 54.4493 100.722 54.342C100.923 54.2347 101.084 54.0737 101.205 53.859C101.331 53.6443 101.394 53.383 101.394 53.075C101.394 52.767 101.334 52.5057 101.212 52.291C101.091 52.0763 100.932 51.9177 100.736 51.815C100.54 51.7077 100.328 51.654 100.099 51.654C99.8659 51.654 99.6512 51.7077 99.4552 51.815C99.2639 51.9177 99.1099 52.0763 98.9932 52.291C98.8765 52.5057 98.8182 52.767 98.8182 53.075C98.8182 53.3877 98.8742 53.6513 98.9862 53.866C99.1029 54.0807 99.2569 54.2417 99.4482 54.349C99.6395 54.4517 99.8495 54.503 100.078 54.503ZM104.752 51.094C105.218 51.094 105.596 51.2363 105.886 51.521C106.175 51.801 106.32 52.207 106.32 52.739V55H105.69V52.83C105.69 52.4473 105.594 52.1557 105.403 51.955C105.211 51.7497 104.95 51.647 104.619 51.647C104.283 51.647 104.014 51.752 103.814 51.962C103.618 52.172 103.52 52.4777 103.52 52.879V55H102.883V51.164H103.52V51.71C103.646 51.514 103.816 51.3623 104.031 51.255C104.25 51.1477 104.49 51.094 104.752 51.094ZM107.689 50.541C107.568 50.541 107.465 50.499 107.381 50.415C107.297 50.331 107.255 50.2283 107.255 50.107C107.255 49.9857 107.297 49.883 107.381 49.799C107.465 49.715 107.568 49.673 107.689 49.673C107.806 49.673 107.904 49.715 107.983 49.799C108.067 49.883 108.109 49.9857 108.109 50.107C108.109 50.2283 108.067 50.331 107.983 50.415C107.904 50.499 107.806 50.541 107.689 50.541ZM107.997 51.164V55H107.36V51.164H107.997ZM109.86 51.689V53.95C109.86 54.1367 109.9 54.2697 109.979 54.349C110.058 54.4237 110.196 54.461 110.392 54.461H110.861V55H110.287C109.932 55 109.666 54.9183 109.489 54.755C109.312 54.5917 109.223 54.3233 109.223 53.95V51.689H108.726V51.164H109.223V50.198H109.86V51.164H110.861V51.689H109.86ZM113.306 55.063C112.946 55.063 112.62 54.9813 112.326 54.818C112.036 54.6547 111.808 54.4237 111.64 54.125C111.476 53.8217 111.395 53.4717 111.395 53.075C111.395 52.683 111.479 52.3377 111.647 52.039C111.819 51.7357 112.053 51.5047 112.347 51.346C112.641 51.1827 112.97 51.101 113.334 51.101C113.698 51.101 114.027 51.1827 114.321 51.346C114.615 51.5047 114.846 51.7333 115.014 52.032C115.186 52.3307 115.273 52.6783 115.273 53.075C115.273 53.4717 115.184 53.8217 115.007 54.125C114.834 54.4237 114.598 54.6547 114.3 54.818C114.001 54.9813 113.67 55.063 113.306 55.063ZM113.306 54.503C113.534 54.503 113.749 54.4493 113.95 54.342C114.15 54.2347 114.311 54.0737 114.433 53.859C114.559 53.6443 114.622 53.383 114.622 53.075C114.622 52.767 114.561 52.5057 114.44 52.291C114.318 52.0763 114.16 51.9177 113.964 51.815C113.768 51.7077 113.555 51.654 113.327 51.654C113.093 51.654 112.879 51.7077 112.683 51.815C112.491 51.9177 112.337 52.0763 112.221 52.291C112.104 52.5057 112.046 52.767 112.046 53.075C112.046 53.3877 112.102 53.6513 112.214 53.866C112.33 54.0807 112.484 54.2417 112.676 54.349C112.867 54.4517 113.077 54.503 113.306 54.503ZM116.747 51.787C116.859 51.5677 117.018 51.3973 117.223 51.276C117.433 51.1547 117.688 51.094 117.986 51.094V51.752H117.818C117.104 51.752 116.747 52.1393 116.747 52.914V55H116.11V51.164H116.747V51.787ZM119.051 50.541C118.929 50.541 118.827 50.499 118.743 50.415C118.659 50.331 118.617 50.2283 118.617 50.107C118.617 49.9857 118.659 49.883 118.743 49.799C118.827 49.715 118.929 49.673 119.051 49.673C119.167 49.673 119.265 49.715 119.345 49.799C119.429 49.883 119.471 49.9857 119.471 50.107C119.471 50.2283 119.429 50.331 119.345 50.415C119.265 50.499 119.167 50.541 119.051 50.541ZM119.359 51.164V55H118.722V51.164H119.359ZM122.313 51.094C122.78 51.094 123.158 51.2363 123.447 51.521C123.737 51.801 123.881 52.207 123.881 52.739V55H123.251V52.83C123.251 52.4473 123.156 52.1557 122.964 51.955C122.773 51.7497 122.512 51.647 122.18 51.647C121.844 51.647 121.576 51.752 121.375 51.962C121.179 52.172 121.081 52.4777 121.081 52.879V55H120.444V51.164H121.081V51.71C121.207 51.514 121.378 51.3623 121.592 51.255C121.812 51.1477 122.052 51.094 122.313 51.094ZM126.504 51.101C126.835 51.101 127.124 51.1733 127.372 51.318C127.624 51.4627 127.81 51.6447 127.932 51.864V51.164H128.576V55.084C128.576 55.434 128.501 55.7443 128.352 56.015C128.202 56.2903 127.988 56.505 127.708 56.659C127.432 56.813 127.11 56.89 126.742 56.89C126.238 56.89 125.818 56.771 125.482 56.533C125.146 56.295 124.947 55.9707 124.887 55.56H125.517C125.587 55.7933 125.731 55.98 125.951 56.12C126.17 56.2647 126.434 56.337 126.742 56.337C127.092 56.337 127.376 56.2273 127.596 56.008C127.82 55.7887 127.932 55.4807 127.932 55.084V54.279C127.806 54.503 127.619 54.6897 127.372 54.839C127.124 54.9883 126.835 55.063 126.504 55.063C126.163 55.063 125.853 54.979 125.573 54.811C125.297 54.643 125.08 54.4073 124.922 54.104C124.763 53.8007 124.684 53.4553 124.684 53.068C124.684 52.676 124.763 52.333 124.922 52.039C125.08 51.7403 125.297 51.5093 125.573 51.346C125.853 51.1827 126.163 51.101 126.504 51.101ZM127.932 53.075C127.932 52.7857 127.873 52.5337 127.757 52.319C127.64 52.1043 127.481 51.941 127.281 51.829C127.085 51.7123 126.868 51.654 126.63 51.654C126.392 51.654 126.175 51.71 125.979 51.822C125.783 51.934 125.626 52.0973 125.51 52.312C125.393 52.5267 125.335 52.7787 125.335 53.068C125.335 53.362 125.393 53.6187 125.51 53.838C125.626 54.0527 125.783 54.2183 125.979 54.335C126.175 54.447 126.392 54.503 126.63 54.503C126.868 54.503 127.085 54.447 127.281 54.335C127.481 54.2183 127.64 54.0527 127.757 53.838C127.873 53.6187 127.932 53.3643 127.932 53.075ZM133.065 55.049C132.743 55.049 132.454 54.993 132.197 54.881C131.945 54.7643 131.747 54.6057 131.602 54.405C131.458 54.1997 131.383 53.964 131.378 53.698H132.057C132.081 53.9267 132.174 54.1203 132.337 54.279C132.505 54.433 132.748 54.51 133.065 54.51C133.369 54.51 133.607 54.4353 133.779 54.286C133.957 54.132 134.045 53.936 134.045 53.698C134.045 53.5113 133.994 53.3597 133.891 53.243C133.789 53.1263 133.66 53.0377 133.506 52.977C133.352 52.9163 133.145 52.851 132.883 52.781C132.561 52.697 132.302 52.613 132.106 52.529C131.915 52.445 131.749 52.3143 131.609 52.137C131.474 51.955 131.406 51.7123 131.406 51.409C131.406 51.143 131.474 50.9073 131.609 50.702C131.745 50.4967 131.934 50.338 132.176 50.226C132.424 50.114 132.706 50.058 133.023 50.058C133.481 50.058 133.854 50.1723 134.143 50.401C134.437 50.6297 134.603 50.933 134.64 51.311H133.94C133.917 51.1243 133.819 50.961 133.646 50.821C133.474 50.6763 133.245 50.604 132.96 50.604C132.694 50.604 132.477 50.674 132.309 50.814C132.141 50.9493 132.057 51.1407 132.057 51.388C132.057 51.5653 132.106 51.71 132.204 51.822C132.307 51.934 132.431 52.0203 132.575 52.081C132.725 52.137 132.932 52.2023 133.198 52.277C133.52 52.3657 133.779 52.4543 133.975 52.543C134.171 52.627 134.339 52.76 134.479 52.942C134.619 53.1193 134.689 53.362 134.689 53.67C134.689 53.908 134.626 54.132 134.5 54.342C134.374 54.552 134.188 54.7223 133.94 54.853C133.693 54.9837 133.401 55.049 133.065 55.049ZM138.931 51.164L136.621 56.806H135.963L136.719 54.958L135.172 51.164H135.879L137.083 54.272L138.273 51.164H138.931ZM140.929 55.063C140.635 55.063 140.372 55.014 140.138 54.916C139.905 54.8133 139.721 54.6733 139.585 54.496C139.45 54.314 139.375 54.1063 139.361 53.873H140.019C140.038 54.0643 140.127 54.2207 140.285 54.342C140.449 54.4633 140.661 54.524 140.922 54.524C141.165 54.524 141.356 54.4703 141.496 54.363C141.636 54.2557 141.706 54.1203 141.706 53.957C141.706 53.789 141.632 53.6653 141.482 53.586C141.333 53.502 141.102 53.4203 140.789 53.341C140.505 53.2663 140.271 53.1917 140.089 53.117C139.912 53.0377 139.758 52.9233 139.627 52.774C139.501 52.62 139.438 52.4193 139.438 52.172C139.438 51.976 139.497 51.7963 139.613 51.633C139.73 51.4697 139.896 51.3413 140.11 51.248C140.325 51.15 140.57 51.101 140.845 51.101C141.27 51.101 141.613 51.2083 141.874 51.423C142.136 51.6377 142.276 51.9317 142.294 52.305H141.657C141.643 52.1043 141.562 51.9433 141.412 51.822C141.268 51.7007 141.072 51.64 140.824 51.64C140.596 51.64 140.414 51.689 140.278 51.787C140.143 51.885 140.075 52.0133 140.075 52.172C140.075 52.298 140.115 52.403 140.194 52.487C140.278 52.5663 140.381 52.6317 140.502 52.683C140.628 52.7297 140.801 52.7833 141.02 52.844C141.296 52.9187 141.52 52.9933 141.692 53.068C141.865 53.138 142.012 53.2453 142.133 53.39C142.259 53.5347 142.325 53.7237 142.329 53.957C142.329 54.167 142.271 54.356 142.154 54.524C142.038 54.692 141.872 54.825 141.657 54.923C141.447 55.0163 141.205 55.063 140.929 55.063ZM144.005 51.689V53.95C144.005 54.1367 144.045 54.2697 144.124 54.349C144.204 54.4237 144.341 54.461 144.537 54.461H145.006V55H144.432C144.078 55 143.812 54.9183 143.634 54.755C143.457 54.5917 143.368 54.3233 143.368 53.95V51.689H142.871V51.164H143.368V50.198H144.005V51.164H145.006V51.689H144.005ZM149.278 52.935C149.278 53.0563 149.271 53.1847 149.257 53.32H146.191C146.215 53.698 146.343 53.9943 146.576 54.209C146.814 54.419 147.101 54.524 147.437 54.524C147.713 54.524 147.941 54.461 148.123 54.335C148.31 54.2043 148.441 54.0317 148.515 53.817H149.201C149.099 54.1857 148.893 54.4867 148.585 54.72C148.277 54.9487 147.895 55.063 147.437 55.063C147.073 55.063 146.747 54.9813 146.457 54.818C146.173 54.6547 145.949 54.4237 145.785 54.125C145.622 53.8217 145.54 53.4717 145.54 53.075C145.54 52.6783 145.62 52.3307 145.778 52.032C145.937 51.7333 146.159 51.5047 146.443 51.346C146.733 51.1827 147.064 51.101 147.437 51.101C147.801 51.101 148.123 51.1803 148.403 51.339C148.683 51.4977 148.898 51.717 149.047 51.997C149.201 52.2723 149.278 52.585 149.278 52.935ZM148.62 52.802C148.62 52.5593 148.567 52.3517 148.459 52.179C148.352 52.0017 148.205 51.8687 148.018 51.78C147.836 51.6867 147.633 51.64 147.409 51.64C147.087 51.64 146.812 51.7427 146.583 51.948C146.359 52.1533 146.231 52.438 146.198 52.802H148.62ZM154.732 51.094C155.031 51.094 155.297 51.157 155.53 51.283C155.763 51.4043 155.948 51.5887 156.083 51.836C156.218 52.0833 156.286 52.3843 156.286 52.739V55H155.656V52.83C155.656 52.4473 155.56 52.1557 155.369 51.955C155.182 51.7497 154.928 51.647 154.606 51.647C154.275 51.647 154.011 51.7543 153.815 51.969C153.619 52.179 153.521 52.4847 153.521 52.886V55H152.891V52.83C152.891 52.4473 152.795 52.1557 152.604 51.955C152.417 51.7497 152.163 51.647 151.841 51.647C151.51 51.647 151.246 51.7543 151.05 51.969C150.854 52.179 150.756 52.4847 150.756 52.886V55H150.119V51.164H150.756V51.717C150.882 51.5163 151.05 51.3623 151.26 51.255C151.475 51.1477 151.71 51.094 151.967 51.094C152.289 51.094 152.574 51.1663 152.821 51.311C153.068 51.4557 153.253 51.668 153.374 51.948C153.481 51.6773 153.659 51.4673 153.906 51.318C154.153 51.1687 154.429 51.094 154.732 51.094Z" fill="#03346E"/>
<path d="M4 10C4 7.17157 4 5.75736 4.87868 4.87868C5.75736 4 7.17157 4 10 4H48V64H10C7.17157 64 5.75736 64 4.87868 63.1213C4 62.2426 4 60.8284 4 58V10Z" fill="white" fill-opacity="0.55"/>
<path d="M31.8721 53.4479L31.0578 54.6693C31.2789 54.8167 31.5358 54.9013 31.8012 54.9141C32.0666 54.927 32.3305 54.8675 32.5647 54.7421C32.799 54.6168 32.9948 54.4302 33.1314 54.2023C33.2679 53.9743 33.3401 53.7136 33.3401 53.4479H31.8721ZM26 49.5332L26.8143 48.3118C26.5731 48.1511 26.2898 48.0653 26 48.0653C25.7102 48.0653 25.4269 48.1511 25.1857 48.3118L26 49.5332ZM20.1279 53.4479H18.6599C18.6599 53.7136 18.7321 53.9743 18.8686 54.2023C19.0052 54.4302 19.201 54.6168 19.4353 54.7421C19.6695 54.8675 19.9334 54.927 20.1988 54.9141C20.4642 54.9013 20.7211 54.8167 20.9422 54.6693L20.1279 53.4479ZM32.6863 52.2265L26.8143 48.3118L25.1857 50.7546L31.0578 54.6693L32.6863 52.2265ZM25.1857 48.3118L19.3137 52.2265L20.9422 54.6693L26.8143 50.7546L25.1857 48.3118ZM27.8634 16.7984L27.9456 16.8963L30.1829 14.9937L30.0987 14.8958L27.8634 16.7984ZM32.4769 18.7734L32.6041 18.7616L32.3692 15.8354L32.242 15.8471L32.4769 18.7734ZM35.2407 21.3962L35.2289 21.5254L38.1552 21.7603L38.1669 21.6331L35.2407 21.3962ZM37.106 26.0547L37.2039 26.1389L39.1065 23.9036L39.0086 23.8194L37.106 26.0547ZM37.2039 29.8657L37.106 29.9479L39.0086 32.1852L39.1065 32.101L37.2039 29.8657ZM35.2289 34.4792L35.2407 34.6064L38.1669 34.3715L38.1552 34.2443L35.2289 34.4792ZM32.6061 37.243L32.4769 37.2312L32.242 40.1575L32.3692 40.1692L32.6061 37.243ZM27.9476 39.1083L27.8634 39.2062L30.0987 41.1088L30.1829 41.0109L27.9476 39.1083ZM24.1366 39.2062L24.0524 39.1083L21.8171 41.0109L21.9013 41.1088L24.1366 39.2062ZM19.5231 37.2312L19.3959 37.241L19.6308 40.1692L19.758 40.1594L19.5231 37.2312ZM16.7593 34.6084L16.7711 34.4792L13.8448 34.2443L13.8331 34.3715L16.7593 34.6084ZM14.894 29.9499L14.7961 29.8657L12.8935 32.101L12.9914 32.1852L14.894 29.9499ZM14.7961 26.1389L14.894 26.0547L12.9914 23.8194L12.8935 23.9036L14.7961 26.1389ZM16.7711 21.5254L16.7593 21.3982L13.8331 21.6331L13.8448 21.7603L16.7711 21.5254ZM19.3939 18.7616L19.5231 18.7734L19.758 15.8471L19.6308 15.8354L19.3939 18.7616ZM24.0524 16.8963L24.1366 16.7984L21.9013 14.8958L21.8171 14.9937L24.0524 16.8963ZM19.5231 18.7734C20.3733 18.8415 21.2274 18.7067 22.0152 18.38C22.8031 18.0533 23.502 17.5441 24.0544 16.8943L21.8171 14.9937C21.566 15.2889 21.2484 15.5202 20.8904 15.6685C20.5324 15.8169 20.1443 15.8781 19.758 15.8471L19.5231 18.7734ZM16.7593 21.3982C16.7312 21.045 16.7802 20.6879 16.9028 20.3555C17.0254 20.0231 17.2188 19.7213 17.4695 19.4709C17.7203 19.2206 18.0224 19.0277 18.355 18.9055C18.6876 18.7834 19.0427 18.735 19.3959 18.7636L19.6308 15.8373C18.8535 15.7747 18.0719 15.8817 17.3401 16.1509C16.6082 16.4201 15.9436 16.8451 15.3922 17.3965C14.8409 17.9479 14.4159 18.6125 14.1466 19.3443C13.8774 20.0762 13.7704 20.8578 13.8331 21.635L16.7593 21.3982ZM14.894 26.0547C15.5431 25.5023 16.0518 24.8036 16.3781 24.0162C16.7045 23.2288 16.8392 22.3751 16.7711 21.5254L13.8448 21.7603C13.9075 22.5432 13.5904 23.3105 12.9914 23.8194L14.894 26.0547ZM14.7961 29.8657C14.5262 29.636 14.3093 29.3504 14.1607 29.0287C14.012 28.7069 13.935 28.3567 13.935 28.0023C13.935 27.6479 14.012 27.2977 14.1607 26.9759C14.3093 26.6542 14.5262 26.3686 14.7961 26.1389L12.8935 23.9036C12.3 24.4089 11.8232 25.0371 11.4963 25.7448C11.1693 26.4525 11 27.2227 11 28.0023C11 28.7819 11.1693 29.5521 11.4963 30.2598C11.8232 30.9675 12.3 31.5957 12.8935 32.101L14.7961 29.8657ZM16.7711 34.4792C16.8392 33.629 16.7044 32.7749 16.3777 31.9871C16.051 31.1992 15.5418 30.5003 14.892 29.9479L12.9914 32.1852C13.5904 32.6941 13.9075 33.4614 13.8448 34.2443L16.7711 34.4792ZM19.3939 37.243C19.0406 37.2714 18.6853 37.2226 18.3526 37.1001C18.0199 36.9776 17.7179 36.7843 17.4673 36.5336C17.2167 36.2828 17.0236 35.9806 16.9014 35.6478C16.7792 35.3151 16.7307 34.9598 16.7593 34.6064L13.8331 34.3715C13.7704 35.1488 13.8774 35.9304 14.1466 36.6622C14.4159 37.3941 14.8409 38.0587 15.3922 38.6101C15.9436 39.1614 16.6082 39.5864 17.3401 39.8557C18.0719 40.1249 18.8535 40.2319 19.6308 40.1692L19.3939 37.243ZM27.8634 39.2062C27.6337 39.4761 27.3481 39.693 27.0264 39.8416C26.7046 39.9903 26.3544 40.0673 26 40.0673C25.6456 40.0673 25.2954 39.9903 24.9736 39.8416C24.6519 39.693 24.3663 39.4761 24.1366 39.2062L21.9013 41.1088C22.4066 41.7023 23.0348 42.1791 23.7425 42.506C24.4502 42.833 25.2204 43.0023 26 43.0023C26.7796 43.0023 27.5498 42.833 28.2575 42.506C28.9652 42.1791 29.5934 41.7023 30.0987 41.1088L27.8634 39.2062ZM35.2407 34.6064C35.2691 34.9598 35.2203 35.3151 35.0978 35.6477C34.9753 35.9804 34.782 36.2825 34.5313 36.533C34.2805 36.7836 33.9783 36.9767 33.6455 37.0989C33.3128 37.2212 32.9575 37.2697 32.6041 37.241L32.3692 40.1692C33.1465 40.2319 33.9281 40.1249 34.6599 39.8557C35.3918 39.5864 36.0564 39.1614 36.6078 38.6101C37.1591 38.0587 37.5841 37.3941 37.8534 36.6622C38.1226 35.9304 38.2296 35.1488 38.1669 34.3715L35.2407 34.6064ZM37.106 29.9479C36.4566 30.5005 35.9478 31.1995 35.6214 31.9873C35.295 32.7751 35.1605 33.6292 35.2289 34.4792L38.1552 34.2443C38.0925 33.4614 38.4096 32.6941 39.0086 32.1852L37.106 29.9479ZM37.2039 26.1389C37.4738 26.3686 37.6907 26.6542 37.8393 26.9759C37.988 27.2977 38.065 27.6479 38.065 28.0023C38.065 28.3567 37.988 28.7069 37.8393 29.0287C37.6907 29.3504 37.4738 29.636 37.2039 29.8657L39.1065 32.101C39.7 31.5957 40.1768 30.9675 40.5037 30.2598C40.8307 29.5521 41 28.7819 41 28.0023C41 27.2227 40.8307 26.4525 40.5037 25.7448C40.1768 25.0371 39.7 24.4089 39.1065 23.9036L37.2039 26.1389ZM35.2289 21.5254C35.1608 22.3756 35.2956 23.2297 35.6223 24.0175C35.949 24.8054 36.4582 25.5043 37.108 26.0567L39.0086 23.8194C38.7134 23.5683 38.4822 23.2507 38.3338 22.8927C38.1854 22.5347 38.1242 22.1466 38.1552 21.7603L35.2289 21.5254ZM32.6061 18.7616C32.9594 18.7332 33.3147 18.782 33.6474 18.9045C33.9801 19.027 34.2821 19.2203 34.5327 19.471C34.7833 19.7218 34.9764 20.024 35.0986 20.3568C35.2208 20.6895 35.2693 21.0429 35.2407 21.3962L38.1669 21.6331C38.2296 20.8558 38.1226 20.0742 37.8534 19.3424C37.5841 18.6105 37.1591 17.9459 36.6078 17.3945C36.0564 16.8432 35.3918 16.4182 34.6599 16.1489C33.9281 15.8797 33.1465 15.7727 32.3692 15.8354L32.6061 18.7616ZM27.9456 16.8963C28.498 17.5454 29.1987 18.0541 29.9861 18.3804C30.7735 18.7068 31.6272 18.8415 32.4769 18.7734L32.242 15.8471C31.8557 15.8781 31.4676 15.8169 31.1096 15.6685C30.7516 15.5202 30.434 15.2889 30.1829 14.9937L27.9456 16.8963ZM30.1007 14.8958C29.5953 14.3016 28.9669 13.8242 28.2589 13.4969C27.5508 13.1695 26.7801 13 26 13C25.2199 13 24.4492 13.1695 23.7411 13.4969C23.0331 13.8242 22.4047 14.3016 21.8993 14.8958L24.1366 16.7984C24.3663 16.5285 24.6519 16.3116 24.9736 16.163C25.2954 16.0143 25.6456 15.9373 26 15.9373C26.3544 15.9373 26.7046 16.0143 27.0264 16.163C27.3481 16.3116 27.6337 16.5285 27.8634 16.7984L30.1007 14.8958ZM24.0524 39.1083C23.5733 38.5453 22.9832 38.087 22.3191 37.762C21.6551 37.437 20.9311 37.2524 20.1925 37.2195L20.0633 40.1536C20.7367 40.1829 21.3748 40.4902 21.8171 41.0109L24.0524 39.1083ZM20.1925 37.2195C19.9693 37.2107 19.7458 37.2146 19.5231 37.2312L19.758 40.1575C19.8598 40.1497 19.9616 40.1483 20.0633 40.1536L20.1925 37.2195ZM21.596 53.4479V38.6855H18.6599V53.4479H21.596ZM32.4789 37.2312C32.2555 37.2145 32.0313 37.2106 31.8075 37.2195L31.9367 40.1536C32.0384 40.1483 32.1402 40.1497 32.242 40.1575L32.4789 37.2312ZM31.8075 37.2195C31.0685 37.2521 30.3442 37.4367 29.6798 37.7616C29.0153 38.0866 28.427 38.5451 27.9476 39.1083L30.1829 41.0109C30.4007 40.7553 30.6688 40.5472 30.9706 40.3997C31.2723 40.2522 31.6011 40.1684 31.9367 40.1536L31.8075 37.2195ZM30.4041 38.6875V53.4479H33.3401V38.6855L30.4041 38.6875Z" fill="#03346E"/>
<path d="M29.9147 26.0449L24.0427 31.917L22.0853 29.9596" stroke="#03346E" stroke-width="1.5" stroke-linecap="round" stroke-linejoin="round"/>
<defs>
<filter id="filter0_d_41_2" x="0" y="0" width="183" height="68" filterUnits="userSpaceOnUse" color-interpolation-filters="sRGB">
<feFlood flood-opacity="0" result="BackgroundImageFix"/>
<feColorMatrix in="SourceAlpha" type="matrix" values="0 0 0 0 0 0 0 0 0 0 0 0 0 0 0 0 0 0 127 0" result="hardAlpha"/>
<feOffset/>
<feGaussianBlur stdDeviation="2"/>
<feComposite in2="hardAlpha" operator="out"/>
<feColorMatrix type="matrix" values="0 0 0 0 0 0 0 0 0 0 0 0 0 0 0 0 0 0 0.25 0"/>
<feBlend mode="normal" in2="BackgroundImageFix" result="effect1_dropShadow_41_2"/>
<feBlend mode="normal" in="SourceGraphic" in2="effect1_dropShadow_41_2" result="shape"/>
</filter>
</defs>
</svg>
